<?xml version="1.0" encoding="utf-8"?>
<!-- Generator: Adobe Illustrator 22.0.1, SVG Export Plug-In . SVG Version: 6.00 Build 0)  -->
<svg version="1.1"
	 id="Слой_1" xmlns:cc="http://creativecommons.org/ns#" xmlns:dc="http://purl.org/dc/elements/1.1/" xmlns:inkscape="http://www.inkscape.org/namespaces/inkscape" xmlns:rdf="http://www.w3.org/1999/02/22-rdf-syntax-ns#" xmlns:sodipodi="http://sodipodi.sourceforge.net/DTD/sodipodi-0.dtd" xmlns:svg="http://www.w3.org/2000/svg"
	 xmlns="http://www.w3.org/2000/svg" xmlns:xlink="http://www.w3.org/1999/xlink" x="0px" y="0px" viewBox="0 0 77 69.691"
	 style="enable-background:new 0 0 77 69.691;" xml:space="preserve">
<path style="fill:none;stroke:#FFD200;stroke-width:2;stroke-linecap:round;stroke-linejoin:round;stroke-miterlimit:10;" d="
	M5.075,21.388L5.075,21.388L59.83,8.97 M12.342,50.296l-0.059,0.018c-2.057,0.464-4.106-0.843-4.578-2.892L1.121,18.32
	c-0.278-1.239-0.076-2.403,0.599-3.482c0.674-1.079,1.661-1.754,2.9-2.032l0,0l0-0.001L56.585,1.113
	c2.478-0.556,4.949,1.003,5.505,3.482l5.446,24.069 M18.108,29.531c-2.538,0-4.603,2.074-4.603,4.612v29.945
	c0,2.537,2.066,4.603,4.603,4.603h53.28c2.537,0,4.611-2.074,4.611-4.603V34.143c0-2.538-2.074-4.612-4.611-4.612L18.108,29.531
	L18.108,29.531L18.108,29.531z M70.267,42.936c0-2.032,0-4.063,0-6.095c0-0.396-0.312-0.708-0.708-0.708c-4.544,0-9.088,0-13.632,0
	c-0.388,0-0.708,0.32-0.708,0.708c0,2.032,0,4.063,0,6.095c0,0.388,0.32,0.708,0.708,0.708c4.544,0,9.088,0,13.632,0
	C69.939,43.644,70.267,43.332,70.267,42.936L70.267,42.936z M60.218,61.415c-0.396,0-0.717-0.32-0.717-0.708v-1.416
	c0-0.388,0.32-0.708,0.717-0.708h9.332c0.388,0,0.708,0.32,0.708,0.708v1.416c0,0.388-0.32,0.708-0.708,0.708H60.218L60.218,61.415
	L60.218,61.415z M47.193,61.415c-0.388,0-0.708-0.32-0.708-0.708v-1.408c0-0.396,0.32-0.708,0.708-0.708h9.341
	c0.388,0,0.708,0.32,0.708,0.708v1.408c0,0.388-0.32,0.708-0.708,0.708H47.193L47.193,61.415z M34.177,61.415
	c-0.388,0-0.708-0.32-0.708-0.708v-1.408c0-0.396,0.32-0.708,0.708-0.708h9.341c0.388,0,0.708,0.32,0.708,0.708v1.408
	c0,0.388-0.32,0.708-0.708,0.708H34.177L34.177,61.415z M21.16,61.415c-0.388,0-0.708-0.32-0.708-0.708v-1.408
	c0-0.396,0.32-0.708,0.708-0.708h9.341c0.388,0,0.708,0.32,0.708,0.708v1.408c0,0.388-0.32,0.708-0.708,0.708H21.16z"/>
</svg>
