<?xml version="1.0" encoding="utf-8"?>
<!-- Generator: Adobe Illustrator 22.0.1, SVG Export Plug-In . SVG Version: 6.00 Build 0)  -->
<svg version="1.1" id="Слой_1" xmlns="http://www.w3.org/2000/svg" xmlns:xlink="http://www.w3.org/1999/xlink" x="0px" y="0px"
	 viewBox="0 0 77.4 61.9" style="enable-background:new 0 0 77.4 61.9;" xml:space="preserve">
<title>crawler crane-construction car-transportation-truck-bulldozer-industry-excavator-vehicle-backhoe</title>
<g>
	<g>
		<path style="fill:#FFD200;" d="M51.4,32H38.9c-0.6,0-1-0.4-1-1v-3.5c0-0.2,0-0.3,0.1-0.4l3.3-6.5c0.2-0.3,0.5-0.6,0.9-0.6h9.2
			c0.6,0,1,0.4,1,1v10C52.4,31.5,52,32,51.4,32z M39.9,30h10.5v-8h-7.6l-2.9,5.8V30z"/>
	</g>
	<g>
		<path style="fill:#FFD200;" d="M67.6,61.9h-6.2c-0.6,0-1-0.4-1-1v-1.5h-0.5v1.5c0,0.6-0.4,1-1,1h-2.5c-0.6,0-1-0.4-1-1v-1.5h-0.5
			v1.5c0,0.6-0.4,1-1,1h-2.5c-0.6,0-1-0.4-1-1v-1.5h-0.5v1.5c0,0.6-0.4,1-1,1h-2.5c-0.6,0-1-0.4-1-1v-1.5h-0.5v1.5c0,0.6-0.4,1-1,1
			h-2.5c-0.6,0-1-0.4-1-1v-1.5h-0.5v1.5c0,0.6-0.4,1-1,1h-2.5c-0.6,0-1-0.4-1-1v-1.5h-0.5v1.5c0,0.6-0.4,1-1,1h-6.2
			c-4,0-7.2-3.2-7.2-7.2s3.2-7.2,7.2-7.2h0.2v-4c0-0.6,0.4-1,1-1h6.5v-5.2c0-0.1,0-0.1-0.1-0.2L33.2,35c-0.2-0.2-0.3-0.4-0.3-0.7v-4
			L21.1,18.8c-0.4-0.4-0.7-1-0.7-1.6v-0.9c-0.5-0.1-0.9-0.5-0.9-1V12h-1.1l0,0H10v18h1.5c0.6,0,1,0.4,1,1v2.5c0,0.6-0.4,1-1,1H8.7
			v5.2c0,1.2-1,2.2-2.2,2.2C5.6,42,5,42.6,5,43.5S5.6,45,6.5,45C7.3,45,8,44.3,8,43.5c0-0.6,0.4-1,1-1h2.5c0.6,0,1,0.4,1,1
			c0,2.7-1.8,5.1-4.5,5.8c-3.2,0.8-6.5-1.1-7.3-4.3c-0.8-3,0.8-6,3.5-7.1v-3.4H1.5c-0.6,0-1-0.4-1-1V31c0-0.6,0.4-1,1-1H3V13.1H1
			c-0.6,0-1-0.4-1-1V1c0-0.6,0.4-1,1-1h2.8C3.9,0,3.9,0,4,0h7l0,0h7.5l0,0H26l0,0h7.5l0,0H41l0,0h7.5l0,0H56l0,0h7.5l0,0h6.4l0,0
			h5.3c1.2,0,2.2,1,2.2,2.2V11c0,0.6-0.4,1-1,1h-1.5v10.5h0.2c1.2,0,2.2,1,2.2,2.2v12.5c0,1.2-1,2.2-2.2,2.2h-3.7h-0.1h-6.1
			c-1.2,0-2.2-1-2.2-2.2v-2.7h-3v7.7c0,1.2-1,2.2-2.2,2.2h-0.2v3h1.5c0.6,0,1,0.4,1,1V50h0.5v-1.5c0-0.6,0.4-1,1-1h6.2
			c4,0,7.2,3.3,7.2,7.2l0,0C74.9,58.7,71.6,61.9,67.6,61.9z M62.4,59.9h5.2c2.9,0,5.2-2.4,5.2-5.2c0-2.9-2.4-5.2-5.2-5.2h-5.2V51
			c0,0.6-0.4,1-1,1h-2.5c-0.6,0-1-0.4-1-1v-1.5h-0.5V51c0,0.6-0.4,1-1,1h-2.5c-0.6,0-1-0.4-1-1v-1.5h-0.5V51c0,0.6-0.4,1-1,1h-2.5
			c-0.6,0-1-0.4-1-1v-1.5h-0.5V51c0,0.6-0.4,1-1,1h-2.5c-0.6,0-1-0.4-1-1v-1.5h-0.5V51c0,0.6-0.4,1-1,1h-2.5c-0.6,0-1-0.4-1-1v-1.5
			h-0.5V51c0,0.6-0.4,1-1,1h-2.5c-0.6,0-1-0.4-1-1v-1.5h-5.2c-2.9,0-5.2,2.4-5.2,5.2s2.4,5.2,5.2,5.2h5.2v-1.5c0-0.6,0.4-1,1-1h2.5
			c0.6,0,1,0.4,1,1v1.5h0.5v-1.5c0-0.6,0.4-1,1-1h2.5c0.6,0,1,0.4,1,1v1.5h0.5v-1.5c0-0.6,0.4-1,1-1h2.5c0.6,0,1,0.4,1,1v1.5h0.5
			v-1.5c0-0.6,0.4-1,1-1h2.5c0.6,0,1,0.4,1,1v1.5h0.5v-1.5c0-0.6,0.4-1,1-1h2.5c0.6,0,1,0.4,1,1v1.5h0.5v-1.5c0-0.6,0.4-1,1-1h2.5
			c0.6,0,1,0.4,1,1C62.4,58.4,62.4,59.9,62.4,59.9z M54.9,50h0.5v-5.5H29.9v3h4c0.6,0,1,0.4,1,1V50h0.5v-1.5c0-0.6,0.4-1,1-1h2.5
			c0.6,0,1,0.4,1,1V50h0.5v-1.5c0-0.6,0.4-1,1-1h2.5c0.6,0,1,0.4,1,1V50h0.5v-1.5c0-0.6,0.4-1,1-1h2.5c0.6,0,1,0.4,1,1V50h0.5v-1.5
			c0-0.6,0.4-1,1-1h2.5c0.6,0,1,0.4,1,1V50z M6.2,34.5v4.2c0,0.5-0.3,0.9-0.8,1c-2.1,0.6-3.4,2.7-2.9,4.9c0.6,2.1,2.7,3.4,4.9,2.9
			c1.4-0.4,2.5-1.5,2.9-2.9H9.8C9.4,45.9,8,47,6.5,47c-2,0-3.5-1.6-3.5-3.5S4.5,40,6.5,40c0.1,0,0.2-0.1,0.2-0.2v-5.2H6.2V34.5z
			 M57.4,42.5h0.2c0.1,0,0.2-0.1,0.2-0.2v-8.7c0-0.6,0.4-1,1-1h4v-2l0,0V27h-5.5v15.5H57.4z M37.4,42.5h18V17H39.1L35,26.4
			c0,0.1,0,0.2,0,0.4v7.1l1.8,1.8c0.4,0.4,0.7,1,0.7,1.6v5.2H37.4z M70.6,37.5h0.7h0.1h3.7c0.1,0,0.2-0.1,0.2-0.2v-4.6L70.6,37.5z
			 M65,37.4h0.1h2.6l7.6-7.6V27L65,37.4L65,37.4z M64.9,33.5v1.2l10.2-10.2h-3.8l-6.4,6.4C64.9,30.9,64.9,33.5,64.9,33.5z M7.9,32.5
			h2.5V32h-8v0.5h5C7.6,32.4,7.8,32.4,7.9,32.5z M5,30h3V10.3H5.3c-0.2,0-0.4,0.2-0.4,0.4v1.4v0.1c0,0,0,0,0,0.1V30H5z M64.9,26v2
			l3.6-3.6h-3.3c-0.1,0-0.2,0.1-0.2,0.2V26H64.9z M22.4,16.4v0.9c0,0.1,0,0.1,0.1,0.2l10.4,10v-0.6l-9.7-9.4
			c-0.2-0.2-0.3-0.4-0.3-0.7v-0.4H22.4z M57.4,25h5.5v-0.2c0-1.2,1-2.2,2.2-2.2h0.2V12h-2l0,0h-7.5l0,0h-7.5l0,0h-7.5l0,0h-7.5l0,0
			h-7.5l0,0v3.4c0,0.5-0.4,0.9-0.9,1l8.5,8.3l4-9.1c0.2-0.4,0.5-0.6,0.9-0.6h17.9c0.6,0,1,0.4,1,1v9H57.4z M67.4,22.5h5.5v-8h-5.5
			V22.5z M21.5,14.4h2.4V12h-2.4V14.4z M67.4,12.5h5.5V12h-2l0,0h-3.5V12.5z M2,11.1h1v-0.4c0-1.3,1-2.4,2.3-2.4h2.6V4.8H5.2
			c-1.3,0-2.4-1.1-2.4-2.4V2H2V11.1z M73.9,10h1.5V9.3l-0.1-0.1l-6-7.2h-3.9l6,8H73.9z M66.4,10h2.5l-6-8h-5l6,8H66.4z M56.4,10h5
			l-6-8h-5L56.4,10z M48.9,10h5l-6-8h-5L48.9,10z M41.4,10h5l-6-8h-5L41.4,10z M33.9,10h5l-6-8h-5L33.9,10z M26.4,10h5l-6-8h-5
			L26.4,10z M18.9,10h5l-6-8h-5L18.9,10z M10,10h6.5l-6-8H4.8v0.4c0,0.2,0.2,0.4,0.4,0.4H9c0.6,0,1,0.4,1,1v5.5c0,0.1,0,0.1,0,0.2
			c0,0.1,0,0.1,0,0.2V10z M71.9,2l3.5,4.1V2.3c0-0.1-0.1-0.2-0.2-0.2h-3.3V2z"/>
	</g>
	<g>
		<path style="fill:#FFD200;" d="M53.9,39.5h-5c-0.6,0-1-0.4-1-1s0.4-1,1-1h5c0.6,0,1,0.4,1,1S54.5,39.5,53.9,39.5z"/>
	</g>
	<g>
		<path style="fill:#FFD200;" d="M67.6,56.9c-1.2,0-2.2-1-2.2-2.2s1-2.2,2.2-2.2s2.2,1,2.2,2.2C69.9,55.9,68.9,56.9,67.6,56.9z
			 M67.6,54.4c-0.1,0-0.2,0.1-0.2,0.2c0,0.3,0.5,0.3,0.5,0C67.9,54.6,67.8,54.4,67.6,54.4z M27.7,56.9c-1.2,0-2.2-1-2.2-2.2
			s1-2.2,2.2-2.2s2.2,1,2.2,2.2C29.9,55.9,28.9,56.9,27.7,56.9z M27.7,54.4c-0.1,0-0.2,0.1-0.2,0.2c0,0.3,0.5,0.3,0.5,0
			C27.9,54.6,27.8,54.4,27.7,54.4z"/>
	</g>
</g>
</svg>
