<svg xmlns="http://www.w3.org/2000/svg" viewBox="0 0 387.143 71.566" width="260" height="48" fill="#ffffff">
<polygon points="129.737,71.123 121.965,71.123 121.965,40.701 141.24,40.701 141.24,47.763 129.737,47.763 "/>
<path d="M153.008,71.123h-7.773V40.701h10.26c3.671,0,6.602,0.934,8.794,2.799
	c2.19,1.863,3.285,4.381,3.285,7.548c0,3.17-1.095,5.685-3.285,7.551c-2.192,1.865-5.123,2.799-8.794,2.799h-2.487V71.123z
	 M159.581,51.048c0-1.035-0.363-1.842-1.089-2.419c-0.725-0.578-1.725-0.866-2.997-0.866h-2.487v6.573h2.487
	c1.272,0,2.272-0.289,2.997-0.867C159.218,52.892,159.581,52.085,159.581,51.048"/>
<path d="M198.13,71.123h-8.306l-1.775-4.753h-12.124l-1.777,4.753h-7.861l11.992-30.422h7.86L198.13,71.123z
	 M182.01,50.161l-3.51,9.371h6.974L182.01,50.161z"/>
<polygon points="228.685,71.123 220.691,71.123 220.691,59.087 209.498,59.087 209.498,71.123 
	201.505,71.123 201.505,40.701 209.498,40.701 209.498,52.026 220.691,52.026 220.691,40.701 228.685,40.701 "/>
<path d="M262.215,71.123h-9.193l-7.285-12.258c-0.443,0.088-0.91,0.155-1.398,0.2
	c-0.488,0.045-0.97,0.067-1.443,0.067v11.991h-7.994V40.701h7.994V52.07c1.155-0.028,2.065-0.252,2.732-0.665
	c0.665-0.415,1.339-1.185,2.021-2.31l4.972-8.394h8.617l-5.063,8.305c-0.77,1.273-1.481,2.376-2.132,3.309
	c-0.651,0.932-1.273,1.754-1.865,2.464L262.215,71.123z"/>
<path d="M294.546,71.123h-8.306l-1.775-4.753h-12.124l-1.777,4.753h-7.861l11.992-30.422h7.86L294.546,71.123
	z M278.426,50.161l-3.51,9.371h6.974L278.426,50.161z"/>
<path d="M305.693,71.123h-7.772V40.701h10.259c3.671,0,6.602,0.934,8.794,2.799
	c2.19,1.863,3.285,4.381,3.285,7.548c0,3.17-1.095,5.685-3.285,7.551c-2.192,1.865-5.123,2.799-8.794,2.799h-2.487V71.123z
	 M312.266,51.048c0-1.035-0.363-1.842-1.089-2.419c-0.724-0.578-1.724-0.866-2.997-0.866h-2.487v6.573h2.487
	c1.273,0,2.273-0.289,2.997-0.867C311.903,52.892,312.266,52.085,312.266,51.048"/>
<polygon points="331.718,40.701 327.899,52.692 322.348,52.692 323.725,40.701 "/>
<path d="M356.143,61.042l4.93,5.328c-1.717,1.777-3.525,3.088-5.418,3.931
	c-1.896,0.844-3.968,1.265-6.218,1.265c-4.53,0-8.313-1.487-11.347-4.462c-3.035-2.976-4.552-6.699-4.552-11.169
	c0-4.472,1.517-8.201,4.552-11.193c3.034-2.989,6.817-4.484,11.347-4.484c2.132,0,4.137,0.406,6.018,1.22
	c1.88,0.815,3.604,2.006,5.174,3.576l-4.841,5.329c-0.977-0.977-1.977-1.695-2.998-2.154c-1.021-0.458-2.14-0.688-3.353-0.688
	c-1.6,0-3.028,0.443-4.286,1.332c-1.259,0.889-2.185,2.087-2.777,3.598h11.46v6.527h-11.592c0.563,1.599,1.495,2.881,2.798,3.843
	c1.302,0.962,2.768,1.442,4.397,1.442c1.243,0,2.384-0.25,3.42-0.756C353.892,63.026,354.988,62.196,356.143,61.042"/>
<path d="M372.576,71.123h-7.773V40.701h10.26c3.671,0,6.602,0.934,8.793,2.799
	c2.19,1.863,3.286,4.381,3.286,7.548c0,3.17-1.096,5.685-3.286,7.551c-2.191,1.865-5.122,2.799-8.793,2.799h-2.487V71.123z
	 M379.149,51.048c0-1.035-0.364-1.842-1.089-2.419c-0.725-0.578-1.725-0.866-2.997-0.866h-2.487v6.573h2.487
	c1.272,0,2.272-0.289,2.997-0.867C378.785,52.892,379.149,52.085,379.149,51.048"/>
<path d="M127.639,29.07h-5.674V0.06h9.02c3.444,0,6.155,0.839,8.132,2.519
	c1.976,1.68,2.966,3.988,2.966,6.924c0,2.91-1.004,5.211-3.007,6.904c-2.007,1.694-4.702,2.542-8.091,2.542h-3.346V29.07z
	 M136.237,9.503c0-1.355-0.459-2.405-1.377-3.154c-0.918-0.747-2.195-1.122-3.832-1.122h-3.389v8.597h3.389
	c1.665,0,2.949-0.374,3.854-1.123C135.785,11.954,136.237,10.889,136.237,9.503"/>
<path d="M155.041,29.367c-2.944,0-5.404-0.992-7.381-2.978c-1.976-1.987-2.965-4.473-2.965-7.458
	c0-2.985,0.989-5.475,2.965-7.471c1.977-1.995,4.437-2.994,7.381-2.994c2.946,0,5.406,0.999,7.383,2.994
	c1.976,1.996,2.965,4.486,2.965,7.471c0,2.985-0.989,5.471-2.965,7.458C160.447,28.375,157.987,29.367,155.041,29.367
	 M155.041,25.631c1.76,0,3.228-0.636,4.404-1.912c1.175-1.274,1.763-2.869,1.763-4.788c0-1.915-0.588-3.518-1.763-4.802
	c-1.176-1.285-2.644-1.927-4.404-1.927c-1.758,0-3.226,0.642-4.402,1.927c-1.176,1.284-1.763,2.887-1.763,4.802
	c0,1.919,0.587,3.514,1.763,4.788C151.815,24.995,153.283,25.631,155.041,25.631"/>
<path d="M173.51,20.503h-0.384v8.567h-4.062V8.763h4.062v8.123h0.324c1.048,0,1.84-0.164,2.373-0.488
	c0.534-0.327,1.107-0.995,1.72-2.002l3.439-5.633h4.358l-3.439,5.603c-0.494,0.811-0.954,1.518-1.378,2.119
	c-0.426,0.603-0.835,1.132-1.232,1.587l6.731,10.998h-4.655l-5.396-8.834c-0.374,0.1-0.766,0.167-1.172,0.207
	C174.395,20.483,173.964,20.503,173.51,20.503"/>
<polygon points="205.529,29.07 201.705,29.07 201.705,14.722 192.751,29.07 188.838,29.07 188.838,8.762 
	192.662,8.762 192.662,23.083 201.645,8.762 205.529,8.762 "/>
<polygon points="214.57,12.38 208.612,12.38 208.612,8.763 224.591,8.763 224.591,12.38 218.632,12.38 
	218.632,29.07 214.57,29.07 "/>
<polygon points="244.78,29.07 240.718,29.07 240.718,20.443 231.707,20.443 231.707,29.07 227.644,29.07 
	227.644,8.762 231.707,8.762 231.707,16.826 240.718,16.826 240.718,8.762 244.78,8.762 "/>
<path d="M249.14,14.87c0-1.838,0.671-3.315,2.015-4.432c1.344-1.117,3.124-1.675,5.337-1.675h7.441V29.07
	h-3.943v-7.766h-2.431l-5.129,7.766h-4.448l5.724-8.389c-1.424-0.395-2.54-1.108-3.351-2.135
	C249.545,17.52,249.14,16.293,249.14,14.87 M253.202,15.047c0,0.812,0.285,1.458,0.858,1.942c0.574,0.486,1.335,0.727,2.284,0.727
	h3.646V12.38h-3.646c-0.949,0-1.71,0.241-2.284,0.726C253.487,13.591,253.202,14.237,253.202,15.047"/>
<polygon points="286.017,29.07 281.956,29.07 281.956,20.443 272.945,20.443 272.945,29.07 268.882,29.07 
	268.882,8.762 272.945,8.762 272.945,16.826 281.956,16.826 281.956,8.762 286.017,8.762 "/>
<path d="M300.041,12.202c-1.758,0-3.226,0.642-4.402,1.927c-1.176,1.284-1.763,2.886-1.763,4.802
	c0,1.918,0.587,3.514,1.763,4.788c1.176,1.276,2.644,1.912,4.402,1.912c0.97,0,1.859-0.193,2.67-0.578
	c0.809-0.385,1.61-0.993,2.4-1.823l2.55,2.727c-1.106,1.147-2.293,2.002-3.558,2.565c-1.265,0.564-2.619,0.845-4.062,0.845
	c-2.944,0-5.404-0.992-7.381-2.978c-1.976-1.988-2.964-4.473-2.964-7.458c0-2.985,0.988-5.475,2.964-7.471
	c1.977-1.995,4.437-2.994,7.381-2.994c1.384,0,2.699,0.266,3.943,0.8c1.246,0.534,2.373,1.316,3.38,2.343l-2.49,2.727
	c-0.71-0.711-1.468-1.244-2.268-1.601C301.806,12.38,300.951,12.202,300.041,12.202"/>
<path d="M325.775,22.874c0,1.917-0.697,3.43-2.09,4.536c-1.394,1.108-3.268,1.66-5.618,1.66h-7.324V8.763
	h3.973v7.916h3.351c2.35,0,4.224,0.558,5.618,1.675C325.078,19.471,325.775,20.977,325.775,22.874 M321.713,22.874
	c0-0.83-0.316-1.472-0.949-1.927c-0.633-0.454-1.523-0.68-2.668-0.68h-3.38v5.216h3.38c1.127,0,2.01-0.226,2.653-0.682
	C321.392,24.347,321.713,23.704,321.713,22.874"/>
<path d="M333.481,20.503h-0.384v8.567h-4.062V8.763h4.062v8.123h0.324c1.048,0,1.84-0.164,2.373-0.488
	c0.534-0.327,1.107-0.995,1.72-2.002l3.438-5.633h4.359l-3.439,5.603c-0.495,0.811-0.954,1.518-1.379,2.119
	c-0.426,0.603-0.835,1.132-1.231,1.587l6.731,10.998h-4.655l-5.396-8.834c-0.375,0.1-0.766,0.167-1.172,0.207
	C334.366,20.483,333.935,20.503,333.481,20.503"/>
<polygon points="365.501,29.07 361.677,29.07 361.677,14.722 352.723,29.07 348.81,29.07 348.81,8.762 
	352.634,8.762 352.634,23.083 361.617,8.762 365.501,8.762 "/>
<path d="M387.143,29.07h-3.824V14.722l-8.954,14.348h-3.914V8.762h3.825v14.321l8.983-14.321h3.884V29.07z
	 M379.049,7.399c-1.423,0-2.6-0.39-3.527-1.172c-0.93-0.78-1.394-1.772-1.394-2.978V2.538h2.994v0.533
	c0,0.611,0.167,1.087,0.504,1.422c0.336,0.336,0.81,0.505,1.423,0.505c0.633,0,1.111-0.16,1.438-0.476
	c0.327-0.314,0.489-0.78,0.489-1.394v-0.59h3.053v0.77c0,1.226-0.463,2.213-1.393,2.964C381.706,7.024,380.512,7.399,379.049,7.399"
	/>
<polygon points="50.818,0 0,50.818 10.163,60.982 50.818,20.327 81.31,50.818 71.146,60.982 50.818,60.982 
	60.982,50.818 50.818,40.655 20.327,71.146 30.491,71.146 81.31,71.146 101.637,50.818 "/>
</svg>