<svg xmlns="http://www.w3.org/2000/svg" viewBox="0 0 335.589 62.036" width="291" height="55" fill="#002F62">
<polygon points="112.46,61.651 105.724,61.651 105.724,35.28 122.432,35.28 122.432,41.402 112.46,41.402 "/>
<path d="M132.632,61.651h-6.738V35.28h8.894c3.182,0,5.723,0.81,7.622,2.427
	c1.899,1.615,2.849,3.798,2.849,6.543c0,2.747-0.95,4.928-2.849,6.545c-1.899,1.617-4.44,2.426-7.622,2.426h-2.156V61.651z
	 M138.33,44.25c0-0.897-0.315-1.597-0.944-2.097c-0.628-0.501-1.495-0.751-2.598-0.751h-2.156V47.1h2.156
	c1.103,0,1.97-0.25,2.598-0.751C138.015,45.849,138.33,45.149,138.33,44.25"/>
<path d="M171.746,61.651h-7.2l-1.539-4.12h-10.509l-1.54,4.12h-6.814l10.394-26.371h6.813L171.746,61.651z
	 M157.772,43.481l-3.042,8.123h6.045L157.772,43.481z"/>
<polygon points="198.232,61.651 191.303,61.651 191.303,51.217 181.601,51.217 181.601,61.651 
	174.672,61.651 174.672,35.28 181.601,35.28 181.601,45.098 191.303,45.098 191.303,35.28 198.232,35.28 "/>
<path d="M227.296,61.651h-7.969l-6.313-10.625c-0.385,0.076-0.789,0.134-1.213,0.173
	c-0.423,0.039-0.841,0.057-1.251,0.057v10.395h-6.93V35.28h6.93v9.855c1.001-0.024,1.79-0.217,2.368-0.576
	c0.576-0.36,1.16-1.027,1.751-2.003l4.311-7.276h7.469l-4.388,7.199c-0.667,1.105-1.285,2.06-1.848,2.869
	c-0.565,0.808-1.105,1.52-1.617,2.136L227.296,61.651z"/>
<path d="M255.322,61.651h-7.2l-1.539-4.12h-10.509l-1.54,4.12h-6.814l10.395-26.371h6.813L255.322,61.651z
	 M241.348,43.481l-3.041,8.123h6.044L241.348,43.481z"/>
<path d="M264.985,61.651h-6.737V35.28h8.893c3.183,0,5.723,0.81,7.623,2.427
	c1.898,1.615,2.848,3.798,2.848,6.543c0,2.747-0.95,4.928-2.848,6.545c-1.9,1.617-4.44,2.426-7.623,2.426h-2.156V61.651z
	 M270.683,44.25c0-0.897-0.314-1.597-0.943-2.097c-0.629-0.501-1.496-0.751-2.599-0.751h-2.156V47.1h2.156
	c1.103,0,1.97-0.25,2.599-0.751C270.369,45.849,270.683,45.149,270.683,44.25"/>
<polygon points="287.544,35.28 284.233,45.675 279.421,45.675 280.614,35.28 "/>
<path d="M308.717,52.913l4.272,4.618c-1.488,1.541-3.054,2.677-4.696,3.408
	c-1.642,0.731-3.438,1.097-5.389,1.097c-3.927,0-7.206-1.289-9.835-3.869c-2.632-2.579-3.947-5.806-3.947-9.682
	c0-3.875,1.315-7.108,3.947-9.702c2.629-2.591,5.908-3.887,9.835-3.887c1.847,0,3.586,0.353,5.216,1.058
	c1.63,0.707,3.124,1.74,4.486,3.1l-4.197,4.62c-0.846-0.847-1.713-1.47-2.598-1.867c-0.886-0.398-1.856-0.597-2.907-0.597
	c-1.386,0-2.625,0.384-3.716,1.154c-1.091,0.771-1.893,1.81-2.406,3.118h9.933v5.66h-10.049c0.488,1.385,1.297,2.497,2.427,3.331
	c1.128,0.834,2.398,1.25,3.811,1.25c1.078,0,2.066-0.217,2.964-0.656C306.766,54.633,307.715,53.913,308.717,52.913"/>
<path d="M322.962,61.651h-6.738V35.28h8.893c3.183,0,5.723,0.81,7.623,2.427
	c1.898,1.615,2.849,3.798,2.849,6.543c0,2.747-0.951,4.928-2.849,6.545c-1.9,1.617-4.44,2.426-7.623,2.426h-2.155V61.651z
	 M328.659,44.25c0-0.897-0.314-1.597-0.943-2.097c-0.629-0.501-1.495-0.751-2.599-0.751h-2.155V47.1h2.155
	c1.104,0,1.97-0.25,2.599-0.751C328.345,45.849,328.659,45.149,328.659,44.25"/>
<path d="M110.643,25.199h-4.919V0.05h7.818c2.987,0,5.336,0.729,7.049,2.185
	c1.714,1.456,2.571,3.457,2.571,6.002c0,2.522-0.87,4.518-2.606,5.985c-1.739,1.468-4.076,2.203-7.014,2.203h-2.899V25.199z
	 M118.095,8.237c0-1.175-0.397-2.085-1.193-2.734c-0.796-0.648-1.904-0.973-3.323-0.973h-2.936v7.453h2.936
	c1.444,0,2.557-0.325,3.341-0.974C117.703,10.361,118.095,9.438,118.095,8.237"/>
<path d="M134.395,25.456c-2.552,0-4.685-0.86-6.398-2.582c-1.713-1.721-2.57-3.876-2.57-6.465
	c0-2.586,0.857-4.745,2.57-6.475c1.713-1.73,3.846-2.595,6.398-2.595c2.554,0,4.687,0.865,6.4,2.595s2.57,3.889,2.57,6.475
	c0,2.589-0.857,4.744-2.57,6.465C139.082,24.596,136.949,25.456,134.395,25.456 M134.395,22.218c1.525,0,2.798-0.552,3.817-1.657
	c1.019-1.105,1.529-2.488,1.529-4.152c0-1.66-0.51-3.048-1.529-4.162c-1.019-1.114-2.292-1.67-3.817-1.67
	c-1.523,0-2.796,0.556-3.815,1.67c-1.021,1.114-1.529,2.502-1.529,4.162c0,1.664,0.508,3.047,1.529,4.152
	C131.599,21.666,132.872,22.218,134.395,22.218"/>
<path d="M150.405,17.772h-0.333v7.427h-3.521V7.596h3.521v7.042h0.281c0.907,0,1.594-0.142,2.057-0.424
	c0.463-0.283,0.959-0.862,1.491-1.735l2.98-4.883h3.779l-2.983,4.858c-0.427,0.702-0.827,1.315-1.194,1.837
	c-0.369,0.522-0.724,0.98-1.067,1.376l5.834,9.533h-4.034l-4.678-7.658c-0.324,0.086-0.664,0.145-1.016,0.179
	C151.172,17.755,150.799,17.772,150.405,17.772"/>
<polygon points="178.159,25.199 174.845,25.199 174.845,12.761 167.083,25.199 163.69,25.199 163.69,7.595 
	167.006,7.595 167.006,20.009 174.793,7.595 178.159,7.595 "/>
<polygon points="185.997,10.73 180.832,10.73 180.832,7.596 194.683,7.596 194.683,10.73 189.518,10.73 
	189.518,25.2 185.997,25.2 "/>
<polygon points="212.184,25.199 208.663,25.199 208.663,17.72 200.852,17.72 200.852,25.199 197.33,25.199 
	197.33,7.595 200.852,7.595 200.852,14.586 208.663,14.586 208.663,7.595 212.184,7.595 "/>
<path d="M215.963,12.89c0-1.593,0.583-2.874,1.748-3.842c1.165-0.969,2.707-1.452,4.626-1.452h6.45v17.603
	h-3.418v-6.733h-2.108l-4.446,6.733h-3.855l4.961-7.272c-1.234-0.343-2.202-0.96-2.905-1.851
	C216.314,15.186,215.963,14.123,215.963,12.89 M219.484,13.043c0,0.704,0.247,1.264,0.744,1.684c0.497,0.42,1.157,0.629,1.98,0.629
	h3.161V10.73h-3.161c-0.823,0-1.483,0.21-1.98,0.63C219.731,11.78,219.484,12.341,219.484,13.043"/>
<polygon points="247.93,25.199 244.409,25.199 244.409,17.72 236.598,17.72 236.598,25.199 233.076,25.199 
	233.076,7.595 236.598,7.595 236.598,14.586 244.409,14.586 244.409,7.595 247.93,7.595 "/>
<path d="M260.086,10.577c-1.524,0-2.797,0.556-3.816,1.67c-1.02,1.113-1.529,2.502-1.529,4.162
	c0,1.664,0.509,3.047,1.529,4.151c1.019,1.106,2.292,1.658,3.816,1.658c0.84,0,1.611-0.167,2.313-0.501
	c0.703-0.334,1.396-0.861,2.082-1.58l2.209,2.364c-0.958,0.993-1.987,1.734-3.083,2.222c-1.097,0.489-2.27,0.733-3.521,0.733
	c-2.553,0-4.686-0.86-6.398-2.582c-1.714-1.722-2.57-3.876-2.57-6.465c0-2.586,0.856-4.745,2.57-6.476
	c1.712-1.729,3.845-2.594,6.398-2.594c1.199,0,2.339,0.23,3.418,0.693c1.08,0.462,2.057,1.141,2.93,2.03l-2.159,2.365
	c-0.616-0.617-1.272-1.079-1.966-1.387C261.615,10.73,260.874,10.577,260.086,10.577"/>
<path d="M282.392,19.828c0,1.661-0.604,2.973-1.812,3.932c-1.208,0.96-2.832,1.439-4.87,1.439h-6.348V7.596
	h3.444v6.862h2.904c2.038,0,3.662,0.483,4.87,1.452C281.788,16.878,282.392,18.183,282.392,19.828 M278.871,19.828
	c0-0.72-0.274-1.275-0.823-1.671c-0.548-0.393-1.32-0.59-2.312-0.59h-2.93v4.523h2.93c0.977,0,1.742-0.197,2.299-0.592
	C278.593,21.104,278.871,20.548,278.871,19.828"/>
<path d="M289.073,17.772h-0.333v7.427h-3.521V7.596h3.521v7.042h0.282c0.907,0,1.594-0.142,2.057-0.424
	c0.462-0.283,0.959-0.862,1.49-1.735l2.981-4.883h3.778l-2.982,4.858c-0.427,0.702-0.827,1.315-1.195,1.837
	c-0.369,0.522-0.724,0.98-1.066,1.376l5.834,9.533h-4.035l-4.678-7.658c-0.324,0.086-0.663,0.145-1.015,0.179
	C289.841,17.755,289.467,17.772,289.073,17.772"/>
<polygon points="316.828,25.199 313.513,25.199 313.513,12.761 305.752,25.199 302.359,25.199 302.359,7.595 
	305.674,7.595 305.674,20.009 313.461,7.595 316.828,7.595 "/>
<path d="M335.589,25.199h-3.316V12.762l-7.761,12.437h-3.392V7.596h3.314v12.413l7.787-12.413h3.368V25.199z
	 M328.572,6.413c-1.233,0-2.253-0.337-3.058-1.015c-0.805-0.676-1.208-1.537-1.208-2.583V2.199h2.596v0.463
	c0,0.53,0.145,0.942,0.437,1.232c0.292,0.291,0.702,0.438,1.233,0.438c0.549,0,0.964-0.138,1.247-0.412
	c0.283-0.273,0.424-0.676,0.424-1.208V2.199h2.646v0.668c0,1.064-0.402,1.919-1.208,2.569
	C330.876,6.089,329.841,6.413,328.572,6.413"/>
<polygon style="fill:#0060B1;" points="44.051,0 0,44.051 8.81,52.861 44.051,17.62 70.483,44.051 61.672,52.861 44.051,52.861 
	52.862,44.051 44.051,35.241 17.62,61.672 26.431,61.672 70.483,61.672 88.103,44.051 "/>
</svg>