<?xml version="1.0" encoding="utf-8"?>
<!-- Generator: Adobe Illustrator 22.0.1, SVG Export Plug-In . SVG Version: 6.00 Build 0)  -->
<svg version="1.1" id="Слой_1" xmlns="http://www.w3.org/2000/svg" xmlns:xlink="http://www.w3.org/1999/xlink" x="0px" y="0px"
	 viewBox="0 0 26 17.4" style="enable-background:new 0 0 26 17.4;" xml:space="preserve">
<title>24 money dollar pay bussiness</title>
<path style="fill:none;stroke:#FFD200;stroke-linecap:round;stroke-linejoin:round;stroke-miterlimit:10;" d="M22.9,16.9H0.5V3.2
	h22.4V16.9z"/>
<path style="fill:none;stroke:#FFD200;stroke-linecap:round;stroke-linejoin:round;stroke-miterlimit:10;" d="M11.7,5.2
	c2.5,0,4.6,2,4.6,4.6s-2,4.6-4.6,4.6s-4.6-2-4.6-4.6S9.2,5.2,11.7,5.2z"/>
<polyline style="fill:none;stroke:#FFD200;stroke-linecap:round;stroke-linejoin:round;stroke-miterlimit:10;" points="4.7,0.5 
	25.5,0.5 25.5,12.7 "/>
<g>
	<path style="fill:#FFD200;" d="M13.4,10.6h-2.7c0,0.1,0,0.2,0,0.3c0,0.2,0.1,0.4,0.2,0.6c0.2,0.2,0.4,0.3,0.7,0.3s0.5-0.1,0.7-0.3
		c0.1-0.1,0.2-0.3,0.3-0.6l0.6,0.1c0,0.4-0.2,0.7-0.5,0.9s-0.6,0.3-1.1,0.3c-0.2,0-0.4,0-0.7-0.1c-0.2-0.1-0.4-0.2-0.5-0.3
		c-0.3-0.3-0.4-0.6-0.4-1c0-0.1,0-0.1,0-0.2H9.9v-0.5h0.4c0.1-0.2,0.3-0.3,0.6-0.4c0.1,0,0.3-0.1,0.7-0.2H9.9V8.9h2.6
		c0-0.1,0.1-0.2,0.1-0.3c0-0.2-0.1-0.4-0.2-0.5c-0.2-0.2-0.4-0.3-0.7-0.3S11.2,7.9,11.1,8c-0.1,0.1-0.2,0.3-0.2,0.5l-0.6-0.1
		c0.1-0.4,0.2-0.7,0.5-0.9c0.2-0.2,0.5-0.3,0.9-0.3c0.5,0,0.8,0.1,1.1,0.3c0.3,0.3,0.4,0.6,0.4,1c0,0.1,0,0.2,0,0.3h0.4v0.5H13
		c-0.1,0.1-0.2,0.2-0.3,0.2C12.3,9.8,12,9.9,11.4,10c-0.1,0-0.1,0-0.2,0.1h2.2V10.6z"/>
</g>
</svg>
