<?xml version="1.0" encoding="utf-8"?>
<!-- Generator: Adobe Illustrator 22.0.1, SVG Export Plug-In . SVG Version: 6.00 Build 0)  -->
<svg version="1.1" id="Слой_1" xmlns="http://www.w3.org/2000/svg" xmlns:xlink="http://www.w3.org/1999/xlink" x="0px" y="0px"
	 viewBox="0 0 61.6 62.6" style="enable-background:new 0 0 61.6 62.6;" xml:space="preserve">
<g>
	<path style="fill:none;stroke:#FFD200;stroke-width:2;stroke-linecap:round;stroke-linejoin:round;stroke-miterlimit:10;" d="
		M26.7,44.8c-0.9,0-1.8,0.2-2.9,0.8c-0.1,0-0.2,0.1-0.2,0.2l0,0c-0.9,0-3.4-1.6-5.3-4.5c-0.5-0.7-1-1.5-1.4-2.4
		c-0.4-0.8-0.8-1.7-1.2-2.5c-0.6-1.6-1-3.3-1.1-4.8c0-1.4,0.2-2,0.3-2.2c0.1,0,0.2-0.1,0.3-0.1c3.4-2,3.6-4.5,2.6-9.1
		c-0.6-2.9-1.2-5.9-3.1-7.1c-0.6-0.4-1.3-0.6-2.3-0.6c-0.8,0-1.7,0.1-2.3,0.3c-1.9,0.6-4.1,2-5.5,3.7C1.9,19.8,1,24.3,1,27.4
		c0,5.1,1.9,11.5,4.9,17.2s7.3,10.9,11.5,13.8c2.9,2,6.5,3.2,9.6,3.2c0.4,0,0.9,0,1.3-0.1c2.2-0.2,4.6-1.2,6.2-2.5
		c0.7-0.5,2.4-2.3,2.4-4c0-2.2-2-4.4-4.1-6.5C30.5,46.2,28.8,44.8,26.7,44.8z"/>
	<path style="fill:none;stroke:#FFD200;stroke-width:2;stroke-linecap:round;stroke-linejoin:round;stroke-miterlimit:10;" d="
		M41.7,33.3c-2.5,0-5-0.4-7.3-1.3c-0.3-0.1-0.5-0.1-0.8,0l-6.3,2l1.9-3.4c0.3-0.5,0.2-1.2-0.3-1.6c-3.9-3.1-6.1-7.4-6.1-11.9
		C22.7,8.3,31.2,1,41.7,1c10.4,0,18.9,7.3,18.9,16.2S52.1,33.3,41.7,33.3z"/>
	<path style="fill:none;stroke:#FFD200;stroke-width:2;stroke-linecap:round;stroke-linejoin:round;stroke-miterlimit:10;" d="
		M34.9,17.2c0-0.9-0.8-1.7-1.7-1.7s-1.7,0.8-1.7,1.7s0.8,1.7,1.7,1.7C34.2,18.9,34.9,18.1,34.9,17.2z"/>
	<path style="fill:none;stroke:#FFD200;stroke-width:2;stroke-linecap:round;stroke-linejoin:round;stroke-miterlimit:10;" d="
		M43.3,17.2c0-0.9-0.8-1.7-1.7-1.7s-1.7,0.8-1.7,1.7s0.8,1.7,1.7,1.7C42.5,18.9,43.3,18.1,43.3,17.2z"/>
	<path style="fill:none;stroke:#FFD200;stroke-width:2;stroke-linecap:round;stroke-linejoin:round;stroke-miterlimit:10;" d="
		M51.3,17.2c0-0.9-0.8-1.7-1.7-1.7s-1.7,0.8-1.7,1.7s0.8,1.7,1.7,1.7C50.5,18.9,51.3,18.1,51.3,17.2z"/>
</g>
</svg>
