<svg xmlns="http://www.w3.org/2000/svg" viewBox="0 0 71 71" width="71" height="71"><path d="M42.14,28.25a.62.62,0,0,1,.44.25.82.82,0,0,1,.15.47,14.26,14.26,0,0,1-2,7.31,14.67,14.67,0,0,1-5.22,5.22,14.3,14.3,0,0,1-7.32,2,.74.74,0,0,1-.46-.16.57.57,0,0,1-.25-.43l-.75-3.25a.67.67,0,0,1,.06-.5.7.7,0,0,1,.37-.35l3.5-1.5a.72.72,0,0,1,.46,0,1,1,0,0,1,.42.25l1.53,1.88a11.31,11.31,0,0,0,3.27-2.28,11.72,11.72,0,0,0,2.26-3.25l-1.87-1.54a.83.83,0,0,1-.25-.42.59.59,0,0,1,0-.45l1.5-3.5a.67.67,0,0,1,.34-.38.73.73,0,0,1,.5-.06Z" /><path d="M35.5,53.5a18,18,0,1,1,18-18A18,18,0,0,1,35.5,53.5Zm0-35a17,17,0,1,0,17,17A17,17,0,0,0,35.5,18.5Z" opacity="0.2" /><path d="M35.5,71A35.5,35.5,0,1,1,71,35.5,35.55,35.55,0,0,1,35.5,71Zm0-70A34.5,34.5,0,1,0,70,35.5,34.54,34.54,0,0,0,35.5,1Z" opacity="0.06" /></svg>