<?xml version="1.0" encoding="utf-8"?>
<!-- Generator: Adobe Illustrator 22.0.1, SVG Export Plug-In . SVG Version: 6.00 Build 0)  -->
<svg version="1.1"
	 id="Слой_1" xmlns:cc="http://creativecommons.org/ns#" xmlns:dc="http://purl.org/dc/elements/1.1/" xmlns:inkscape="http://www.inkscape.org/namespaces/inkscape" xmlns:rdf="http://www.w3.org/1999/02/22-rdf-syntax-ns#" xmlns:sodipodi="http://sodipodi.sourceforge.net/DTD/sodipodi-0.dtd" xmlns:svg="http://www.w3.org/2000/svg"
	 xmlns="http://www.w3.org/2000/svg" xmlns:xlink="http://www.w3.org/1999/xlink" x="0px" y="0px" viewBox="0 0 67.3 67"
	 style="enable-background:new 0 0 67.3 67;" xml:space="preserve">
<g transform="translate(0,-952.36218)">
	<path style="fill:none;stroke:#FFD200;stroke-width:2;stroke-linecap:round;stroke-linejoin:round;stroke-miterlimit:10;" d="
		M33.6,953l-4.2,2.9l-5.1-1.1l-2.8,4.3l-5.1,1l-1,5.1l-4.3,2.8l1.1,5.1l-2.9,4.2l2.9,4.2l-1.1,5.1l4.3,2.8l1,5.1l5.1,1l2.8,4.3
		l5.1-1.1l4.2,2.9l4.2-2.9l5,1.1l2.8-4.3l5.1-1l1-5.1l4.3-2.8l-1.1-5.1l2.9-4.2L55,973l1.1-5.1l-4.3-2.8l-1-5.1l-5.1-1l-2.8-4.3
		l-5,1.1L33.6,953z M33.6,963.6l4.2,8.5l9.4,1.4l-6.8,6.6l1.6,9.3l-8.4-4.5l-8.4,4.4l1.6-9.3l-6.8-6.6l9.4-1.4L33.6,963.6z
		 M13.8,989.9l-12.7,19.9l11.4-2.3l3,10.6l10.4-17.3 M41.4,1000.8l10.4,17.3l3-10.6l11.4,2.3L53.5,990"/>
</g>
</svg>
