<?xml version="1.0" encoding="utf-8"?>
<!-- Generator: Adobe Illustrator 22.0.1, SVG Export Plug-In . SVG Version: 6.00 Build 0)  -->
<svg version="1.1" id="Слой_1" xmlns="http://www.w3.org/2000/svg" xmlns:xlink="http://www.w3.org/1999/xlink" x="0px" y="0px"
	 viewBox="0 0 88.878 66.166" style="enable-background:new 0 0 88.878 66.166;" xml:space="preserve">
<path style="fill:none;stroke:#FFD200;stroke-width:2;stroke-miterlimit:10;" d="M20.446,53.026c0,0-7.248,5.05-2.498,8.653
	c4.749,3.603,15.846,2.93,18.527,0.484c2.682-2.445,2.233-10.395-2.588-10.296C29.066,51.966,25.883,50.289,20.446,53.026z"/>
<path style="fill:none;stroke:#FFD200;stroke-width:2;stroke-miterlimit:10;" d="M43.966,53.581c0,0-6.275,4.909-3.272,8.341
	c3.003,3.432,15.494,2.153,15.82-0.695c0.326-2.848-0.005-10.499-4.692-9.484C47.135,52.76,45.611,52.044,43.966,53.581z"/>
<path style="fill:none;stroke:#FFD200;stroke-width:2;stroke-miterlimit:10;" d="M10.589,62.905c0,0,5.906-3.033,4.041-6.497
	c-1.865-3.464-12.211-4.646-12.948-2.285s-1.742,8.927,2.229,8.916C7.882,63.029,9,63.913,10.589,62.905z"/>
<path style="fill:none;stroke:#FFD200;stroke-width:2;stroke-miterlimit:10;" d="M65.66,65.161c0,0-7.343,0.176-7.286-4.385
	c0.058-4.56,4.987-8.355,7.331-8.022c2.345,0.333,8.665,1.267,8.981,5.114c0.316,3.846-0.721,5.553-1.595,6.067
	C72.219,64.449,67.094,65.231,65.66,65.161z"/>
<path style="fill:none;stroke:#FFD200;stroke-width:2;stroke-miterlimit:10;" d="M54.869,40.537c0,0-8.052,1.258-4.781,6.039
	c3.271,4.781,11.449,8.681,14.343,4.151c2.894-4.529,2.013-10.316-0.881-10.191C60.657,40.663,58.727,39.166,54.869,40.537z"/>
<path style="fill:none;stroke:#FFD200;stroke-width:2;stroke-miterlimit:10;" d="M68.441,47.061c0,0,1.761,8.43,8.43,6.668
	c6.668-1.761,9.687-8.304,6.165-11.198c-3.523-2.894-8.052-5.536-11.198-2.39C68.694,43.287,67.952,45.47,68.441,47.061z"/>
<path style="fill:none;stroke:#FFD200;stroke-width:2;stroke-miterlimit:10;" d="M42.111,40.768c0,0-10.443-4.278-13.713,1.636
	c-3.271,5.914,1.007,8.158,4.151,8.169c3.146,0.009,14.609,3.532,14.665-2.004C47.269,43.033,42.111,40.768,42.111,40.768z"/>
<path style="fill:none;stroke:#FFD200;stroke-width:2;stroke-miterlimit:10;" d="M12.295,39.12c0,0-8.933,3.649-5.033,8.807
	s7.172,7.297,10.065,5.787c2.894-1.51,7.926-5.061,7.801-7.06s-0.881-7.786-4.781-7.534S17.704,37.61,12.295,39.12z"/>
<path style="fill:none;stroke:#FFD200;stroke-width:2;stroke-miterlimit:10;" d="M57.68,29.285c0,0,8.56-4.907,14.348,0
	s0.856,9.311-1.27,9.562c-2.127,0.251-12.326,1.258-13.077-1.132S53.225,30.998,57.68,29.285z"/>
<path style="fill:none;stroke:#FFD200;stroke-width:2;stroke-miterlimit:10;" d="M28.234,27.801c0,0-9.234-4.278-12.127,1.636
	s0.89,8.158,3.672,8.169s12.919,3.532,12.968-2.004C32.796,30.066,28.234,27.801,28.234,27.801z"/>
<path style="fill:none;stroke:#FFD200;stroke-width:2;stroke-miterlimit:10;" d="M41.207,29.901c0,0-8.323,2.866-3.951,6.9
	s13.793,6.21,16.022,1.174c2.229-5.035,0.209-10.543-2.843-9.833C47.382,28.853,45.051,27.774,41.207,29.901z"/>
<path style="fill:none;stroke:#FFD200;stroke-width:2;stroke-miterlimit:10;" d="M29.025,23.498c0,0,2.876-7.635,9.226-5.853
	s5.538,7.512,4.306,8.593c-1.233,1.081-7.253,6.091-9.016,4.379C31.777,28.904,27.079,26.761,29.025,23.498z"/>
<path style="fill:none;stroke:#FFD200;stroke-width:2;stroke-miterlimit:10;" d="M77.133,55.89c0,0-2.154,4.834,0.987,6.974
	c3.141,2.139,10.527-0.944,9.693-3.191c-0.834-2.248-3.834-8.086-6.41-6.516C78.825,54.726,77.607,54.431,77.133,55.89z"/>
<path style="fill:none;stroke:#FFD200;stroke-width:2;stroke-miterlimit:10;" d="M58.769,15.823c0,0-10.989-2.567-13.28,3.791
	s2.288,7.896,5.396,7.406s14.985,1.169,14.161-4.305C64.222,17.241,58.769,15.823,58.769,15.823z"/>
<path style="fill:none;stroke:#FFD200;stroke-width:2;stroke-miterlimit:10;" d="M27.909,13.849c0,0,3.471,3.996,6.737,2.053
	c3.266-1.942,3.594-9.94,1.204-10.134c-2.389-0.194-8.948,0.058-8.615,3.056C27.568,11.823,26.786,12.803,27.909,13.849z"/>
<path style="fill:none;stroke:#FFD200;stroke-width:2;stroke-miterlimit:10;" d="M27.943,18.121c0,0-2.37-4.732-6.016-3.662
	s-5.949,8.736-3.683,9.518c2.266,0.782,8.683,2.166,9.104-0.821C27.769,20.167,28.771,19.413,27.943,18.121z"/>
<path style="fill:none;stroke:#FFD200;stroke-width:2;stroke-miterlimit:10;" d="M41.052,5.805c0,0-4.341,6.68-0.387,8.952
	c3.954,2.271,15.353-2.994,14.737-5.793s-3.413-9.93-7.517-7.447S42.108,3.817,41.052,5.805z"/>
</svg>
