<?xml version="1.0" encoding="utf-8"?>
<!-- Generator: Adobe Illustrator 22.0.1, SVG Export Plug-In . SVG Version: 6.00 Build 0)  -->
<svg version="1.1" id="Слой_1" xmlns="http://www.w3.org/2000/svg" xmlns:xlink="http://www.w3.org/1999/xlink" x="0px" y="0px"
	 viewBox="0 0 113.5 60.465" style="enable-background:new 0 0 113.5 60.465;" xml:space="preserve">
<g>
	<path style="fill:none;stroke:#FFD200;stroke-width:2;stroke-linecap:round;stroke-linejoin:round;stroke-miterlimit:10;" d="
		M1,4.279v40.337v6.559h15.741c0.656-4.755,4.591-8.526,9.51-8.526s8.854,3.771,9.51,8.526h51.651
		c0.656-4.755,4.591-8.526,9.51-8.526s8.854,3.771,9.51,8.526h6.067v-6.559V31.499c0,0-0.492-4.591-4.263-8.526l-5.083-12.626
		h-8.035v-0.82c0-1.148-0.984-2.132-2.132-2.132c-1.148,0-2.132,0.984-2.132,2.132v0.82H75.935v34.106h-4.263L71.587,5.099V1H66.26
		v5.739H10.838v-2.46H1z M85.281,23.956V13.79h15.249l4.099,10.166H85.445H85.281z"/>
	<path style="fill:none;stroke:#FFD200;stroke-width:2;stroke-linecap:round;stroke-linejoin:round;stroke-miterlimit:10;" d="
		M19.879,52.209c-0.134,0.269-0.134,0.672-0.134,0.941c0,3.494,2.822,6.316,6.316,6.316s6.316-2.822,6.316-6.316
		c0-0.269-0.134-0.672-0.134-0.941c-0.403-3.091-2.957-5.375-6.182-5.375S20.282,49.252,19.879,52.209z"/>
</g>
<path style="fill:none;stroke:#FFD200;stroke-width:2;stroke-linecap:round;stroke-linejoin:round;stroke-miterlimit:10;" d="
	M90.753,52.209c-0.134,0.269-0.134,0.672-0.134,0.941c0,3.494,2.822,6.316,6.316,6.316s6.316-2.822,6.316-6.316
	c0-0.269-0.134-0.672-0.134-0.941c-0.403-3.091-2.957-5.375-6.182-5.375C93.71,46.833,91.156,49.252,90.753,52.209z"/>
</svg>
