<?xml version="1.0" encoding="utf-8"?>
<!-- Generator: Adobe Illustrator 22.0.1, SVG Export Plug-In . SVG Version: 6.00 Build 0)  -->
<svg version="1.1" id="Слой_1" xmlns="http://www.w3.org/2000/svg" xmlns:xlink="http://www.w3.org/1999/xlink" x="0px" y="0px"
	 viewBox="0 0 77.3 64.6" style="enable-background:new 0 0 77.3 64.6;" xml:space="preserve">
<g>
	<path style="fill:none;stroke:#FFD200;stroke-width:2;stroke-linecap:round;stroke-linejoin:round;stroke-miterlimit:10;" d="
		M76.3,32.1v21.3 M47.8,8.5V3.9h24.6c0.7,0,1.2,0.6,1.2,1.2v10.1 M28.3,14.9V10c0-0.7,0.6-1.2,1.2-1.2h35.1c0.7,0,1.2,0.6,1.2,1.2
		v5.1 M8.8,15.1V2.2C8.8,1.6,9.4,1,10,1h33.8C44.5,1,45,1.6,45,2.2v6.4 M1,14.3c0-1.8,1.4-3.2,3.2-3.2h4.2 M75,63.6H2.2
		C1.6,63.6,1,63,1,62.3v-48c0.9,0.6,2,0.9,3.2,0.9h68.9c1.8,0,3.2,1.7,3.2,3.8v13.2h-9.6c-5.5,0-10,4.7-10,10.5s4.5,10.5,10,10.5
		h9.6v9C76.3,63,75.7,63.6,75,63.6z"/>
	<path style="fill:none;stroke:#FFD200;stroke-width:2;stroke-linecap:round;stroke-linejoin:round;stroke-miterlimit:10;" d="
		M62.1,42.9c0,2.9,2.3,5.3,5.2,5.3s5.2-2.4,5.2-5.3c0-2.9-2.3-5.3-5.2-5.3C64.4,37.6,62.1,39.9,62.1,42.9z"/>
	<path style="fill:none;stroke:#FFD200;stroke-width:2;stroke-linecap:round;stroke-linejoin:round;stroke-miterlimit:10;" d="
		M6.6,21.8H10"/>
	<path style="fill:none;stroke:#FFD200;stroke-width:2;stroke-linecap:round;stroke-linejoin:round;stroke-miterlimit:10;" d="
		M29.1,21.8h6.4"/>
	<path style="fill:none;stroke:#FFD200;stroke-width:2;stroke-linecap:round;stroke-linejoin:round;stroke-miterlimit:10;" d="
		M41.8,21.8h6.4"/>
	<path style="fill:none;stroke:#FFD200;stroke-width:2;stroke-linecap:round;stroke-linejoin:round;stroke-miterlimit:10;" d="
		M54.5,21.8h6.4"/>
	<path style="fill:none;stroke:#FFD200;stroke-width:2;stroke-linecap:round;stroke-linejoin:round;stroke-miterlimit:10;" d="
		M16.4,21.8h6.4"/>
	<path style="fill:none;stroke:#FFD200;stroke-width:2;stroke-linecap:round;stroke-linejoin:round;stroke-miterlimit:10;" d="
		M67.2,21.8h3.4"/>
</g>
</svg>
