<svg xmlns="http://www.w3.org/2000/svg" xmlns:xlink="http://www.w3.org/1999/xlink"><symbol id="arrow-left" viewBox="0 0 36.2 18.7"><path d="M9.6.5L1.2 8.7h0l-.7.7.6.6h0l8.4 8.2M35.7 9.4H.7" fill="none" stroke="#000" stroke-linecap="round" stroke-linejoin="round" stroke-miterlimit="10"/></symbol><symbol id="arrow-right" viewBox="0 0 36.3 18.7"><style>.st0{fill:none;stroke:#000;stroke-linecap:round;stroke-linejoin:round;stroke-miterlimit:10}</style><path class="st0" d="M26.7 18.2l8.4-8.2.6-.6-.7-.7L26.6.5M35.5 9.4H.5"/></symbol><symbol id="cards" viewBox="0 0 77 69.691"><path d="M5.075 21.388h0L59.83 8.97M12.342 50.296l-.059.018c-2.057.464-4.106-.843-4.578-2.892L1.121 18.32c-.278-1.239-.076-2.403.599-3.482.674-1.079 1.661-1.754 2.9-2.032h0v-.001L56.585 1.113a4.61 4.61 0 0 1 5.505 3.482l5.446 24.069m-49.428.867c-2.538 0-4.603 2.074-4.603 4.612v29.945a4.61 4.61 0 0 0 4.603 4.603h53.28c2.537 0 4.611-2.074 4.611-4.603V34.143a4.624 4.624 0 0 0-4.611-4.612h-53.28 0zm52.159 13.405v-6.095a.702.702 0 0 0-.708-.708H55.927a.712.712 0 0 0-.708.708v6.095c0 .388.32.708.708.708h13.632c.38 0 .708-.312.708-.708h0zM60.218 61.415a.714.714 0 0 1-.717-.708v-1.416c0-.388.32-.708.717-.708h9.332c.388 0 .708.32.708.708v1.416c0 .388-.32.708-.708.708h-9.332 0zm-13.025 0a.712.712 0 0 1-.708-.708v-1.408c0-.396.32-.708.708-.708h9.341c.388 0 .708.32.708.708v1.408c0 .388-.32.708-.708.708h-9.341 0zm-13.016 0a.712.712 0 0 1-.708-.708v-1.408c0-.396.32-.708.708-.708h9.341c.388 0 .708.32.708.708v1.408c0 .388-.32.708-.708.708h-9.341 0zm-13.017 0a.712.712 0 0 1-.708-.708v-1.408c0-.396.32-.708.708-.708h9.341c.388 0 .708.32.708.708v1.408c0 .388-.32.708-.708.708H21.16z" fill="none" stroke="#ffd200" stroke-width="2" stroke-linecap="round" stroke-linejoin="round" stroke-miterlimit="10"/></symbol><symbol id="crane" viewBox="0 0 77.4 61.9"><path d="M51.4 32H38.9c-.6 0-1-.4-1-1v-3.5c0-.2 0-.3.1-.4l3.3-6.5c.2-.3.5-.6.9-.6h9.2c.6 0 1 .4 1 1v10c0 .5-.4 1-1 1zm-11.5-2h10.5v-8h-7.6l-2.9 5.8V30z" fill="#ffd200"/><path d="M67.6 61.9h-6.2c-.6 0-1-.4-1-1v-1.5h-.5v1.5c0 .6-.4 1-1 1h-2.5c-.6 0-1-.4-1-1v-1.5h-.5v1.5c0 .6-.4 1-1 1h-2.5c-.6 0-1-.4-1-1v-1.5h-.5v1.5c0 .6-.4 1-1 1h-2.5c-.6 0-1-.4-1-1v-1.5h-.5v1.5c0 .6-.4 1-1 1h-2.5c-.6 0-1-.4-1-1v-1.5h-.5v1.5c0 .6-.4 1-1 1h-2.5c-.6 0-1-.4-1-1v-1.5h-.5v1.5c0 .6-.4 1-1 1h-6.2c-4 0-7.2-3.2-7.2-7.2s3.2-7.2 7.2-7.2h.2v-4c0-.6.4-1 1-1h6.5v-5.2c0-.1 0-.1-.1-.2L33.2 35c-.2-.2-.3-.4-.3-.7v-4L21.1 18.8c-.4-.4-.7-1-.7-1.6v-.9c-.5-.1-.9-.5-.9-1V12H10v18h1.5c.6 0 1 .4 1 1v2.5c0 .6-.4 1-1 1H8.7v5.2c0 1.2-1 2.2-2.2 2.2-.9.1-1.5.7-1.5 1.6S5.6 45 6.5 45c.8 0 1.5-.7 1.5-1.5 0-.6.4-1 1-1h2.5c.6 0 1 .4 1 1 0 2.7-1.8 5.1-4.5 5.8-3.2.8-6.5-1.1-7.3-4.3-.8-3 .8-6 3.5-7.1v-3.4H1.5c-.6 0-1-.4-1-1V31c0-.6.4-1 1-1H3V13.1H1c-.6 0-1-.4-1-1V1c0-.6.4-1 1-1h74.2c1.2 0 2.2 1 2.2 2.2V11c0 .6-.4 1-1 1h-1.5v10.5h.2c1.2 0 2.2 1 2.2 2.2v12.5c0 1.2-1 2.2-2.2 2.2h-9.9c-1.2 0-2.2-1-2.2-2.2v-2.7h-3v7.7c0 1.2-1 2.2-2.2 2.2h-.2v3h1.5c.6 0 1 .4 1 1V50h.5v-1.5c0-.6.4-1 1-1h6.2c4 0 7.2 3.3 7.2 7.2-.1 4-3.4 7.2-7.4 7.2zm-5.2-2h5.2c2.9 0 5.2-2.4 5.2-5.2 0-2.9-2.4-5.2-5.2-5.2h-5.2V51c0 .6-.4 1-1 1h-2.5c-.6 0-1-.4-1-1v-1.5h-.5V51c0 .6-.4 1-1 1h-2.5c-.6 0-1-.4-1-1v-1.5h-.5V51c0 .6-.4 1-1 1h-2.5c-.6 0-1-.4-1-1v-1.5h-.5V51c0 .6-.4 1-1 1h-2.5c-.6 0-1-.4-1-1v-1.5h-.5V51c0 .6-.4 1-1 1h-2.5c-.6 0-1-.4-1-1v-1.5h-.5V51c0 .6-.4 1-1 1h-2.5c-.6 0-1-.4-1-1v-1.5h-5.2c-2.9 0-5.2 2.4-5.2 5.2s2.4 5.2 5.2 5.2h5.2v-1.5c0-.6.4-1 1-1h2.5c.6 0 1 .4 1 1v1.5h.5v-1.5c0-.6.4-1 1-1h2.5c.6 0 1 .4 1 1v1.5h.5v-1.5c0-.6.4-1 1-1h2.5c.6 0 1 .4 1 1v1.5h.5v-1.5c0-.6.4-1 1-1h2.5c.6 0 1 .4 1 1v1.5h.5v-1.5c0-.6.4-1 1-1h2.5c.6 0 1 .4 1 1v1.5h.5v-1.5c0-.6.4-1 1-1h2.5c.6 0 1 .4 1 1v1.5zM54.9 50h.5v-5.5H29.9v3h4c.6 0 1 .4 1 1V50h.5v-1.5c0-.6.4-1 1-1h2.5c.6 0 1 .4 1 1V50h.5v-1.5c0-.6.4-1 1-1h2.5c.6 0 1 .4 1 1V50h.5v-1.5c0-.6.4-1 1-1h2.5c.6 0 1 .4 1 1V50h.5v-1.5c0-.6.4-1 1-1h2.5c.6 0 1 .4 1 1V50zM6.2 34.5v4.2c0 .5-.3.9-.8 1-2.1.6-3.4 2.7-2.9 4.9.6 2.1 2.7 3.4 4.9 2.9 1.4-.4 2.5-1.5 2.9-2.9h-.5C9.4 45.9 8 47 6.5 47c-2 0-3.5-1.6-3.5-3.5S4.5 40 6.5 40c.1 0 .2-.1.2-.2v-5.2h-.5v-.1zm51.2 8h.2c.1 0 .2-.1.2-.2v-8.7c0-.6.4-1 1-1h4V27h-5.5v15.5h.1zm-20 0h18V17H39.1L35 26.4v7.5l1.8 1.8c.4.4.7 1 .7 1.6v5.2h-.1zm33.2-5h4.5c.1 0 .2-.1.2-.2v-4.6l-4.7 4.8zm-5.6-.1h2.7l7.6-7.6V27L65 37.4zm-.1-3.9v1.2l10.2-10.2h-3.8l-6.4 6.4v2.6zm-57-1h2.5V32h-8v.5h5c.2-.1.4-.1.5 0zM5 30h3V10.3H5.3c-.2 0-.4.2-.4.4V30H5zm59.9-4v2l3.6-3.6h-3.3c-.1 0-.2.1-.2.2V26h-.1zm-42.5-9.6v.9c0 .1 0 .1.1.2l10.4 10v-.6l-9.7-9.4c-.2-.2-.3-.4-.3-.7v-.4h-.5zm35 8.6h5.5v-.2c0-1.2 1-2.2 2.2-2.2h.2V12H25.8v3.4c0 .5-.4.9-.9 1l8.5 8.3 4-9.1c.2-.4.5-.6.9-.6h17.9c.6 0 1 .4 1 1v9h.2zm10-2.5h5.5v-8h-5.5v8zm-45.9-8.1h2.4V12h-2.4v2.4zm45.9-1.9h5.5V12h-5.5v.5zM2 11.1h1v-.4c0-1.3 1-2.4 2.3-2.4h2.6V4.8H5.2c-1.3 0-2.4-1.1-2.4-2.4V2H2v9.1zM73.9 10h1.5v-.7l-.1-.1-6-7.2h-3.9l6 8h2.5zm-7.5 0h2.5l-6-8h-5l6 8h2.5zm-10 0h5l-6-8h-5l6 8zm-7.5 0h5l-6-8h-5l6 8zm-7.5 0h5l-6-8h-5l6 8zm-7.5 0h5l-6-8h-5l6 8zm-7.5 0h5l-6-8h-5l6 8zm-7.5 0h5l-6-8h-5l6 8zM10 10h6.5l-6-8H4.8v.4c0 .2.2.4.4.4H9c.6 0 1 .4 1 1V10zm61.9-8l3.5 4.1V2.3c0-.1-.1-.2-.2-.2h-3.3V2z" fill="#ffd200"/><path d="M53.9 39.5h-5c-.6 0-1-.4-1-1s.4-1 1-1h5c.6 0 1 .4 1 1s-.4 1-1 1zM67.6 56.9c-1.2 0-2.2-1-2.2-2.2s1-2.2 2.2-2.2 2.2 1 2.2 2.2c.1 1.2-.9 2.2-2.2 2.2zm0-2.5c-.1 0-.2.1-.2.2 0 .3.5.3.5 0 0 0-.1-.2-.3-.2zm-39.9 2.5c-1.2 0-2.2-1-2.2-2.2s1-2.2 2.2-2.2 2.2 1 2.2 2.2c0 1.2-1 2.2-2.2 2.2zm0-2.5c-.1 0-.2.1-.2.2 0 .3.5.3.5 0-.1 0-.2-.2-.3-.2z" fill="#ffd200"/></symbol><symbol id="money" viewBox="0 0 26 17.4"><path d="M22.9 16.9H.5V3.2h22.4v13.7z" fill="none" stroke="#ffd200" stroke-linecap="round" stroke-linejoin="round" stroke-miterlimit="10"/><path d="M11.7 5.2c2.5 0 4.6 2 4.6 4.6s-2 4.6-4.6 4.6-4.6-2-4.6-4.6 2.1-4.6 4.6-4.6z" fill="none" stroke="#ffd200" stroke-linecap="round" stroke-linejoin="round" stroke-miterlimit="10"/><path fill="none" stroke="#ffd200" stroke-linecap="round" stroke-linejoin="round" stroke-miterlimit="10" d="M4.7.5h20.8v12.2"/><path d="M13.4 10.6h-2.7v.3c0 .2.1.4.2.6.2.2.4.3.7.3s.5-.1.7-.3c.1-.1.2-.3.3-.6l.6.1c0 .4-.2.7-.5.9s-.6.3-1.1.3c-.2 0-.4 0-.7-.1-.2-.1-.4-.2-.5-.3-.3-.3-.4-.6-.4-1v-.2h-.1v-.5h.4c.1-.2.3-.3.6-.4.1 0 .3-.1.7-.2H9.9v-.6h2.6c0-.1.1-.2.1-.3 0-.2-.1-.4-.2-.5-.2-.2-.4-.3-.7-.3s-.5.1-.6.2c-.1.1-.2.3-.2.5l-.6-.1c.1-.4.2-.7.5-.9.2-.2.5-.3.9-.3.5 0 .8.1 1.1.3.3.3.4.6.4 1v.3h.4v.5H13c-.1.1-.2.2-.3.2-.4.3-.7.4-1.3.5-.1 0-.1 0-.2.1h2.2v.5z" fill="#ffd200"/></symbol><symbol id="phone-header" viewBox="0 0 71 71"><path d="M42.14 28.25a.62.62 0 0 1 .44.25.82.82 0 0 1 .15.47 14.26 14.26 0 0 1-2 7.31 14.67 14.67 0 0 1-5.22 5.22 14.3 14.3 0 0 1-7.32 2 .74.74 0 0 1-.46-.16.57.57 0 0 1-.25-.43l-.75-3.25a.67.67 0 0 1 .06-.5.7.7 0 0 1 .37-.35l3.5-1.5a.72.72 0 0 1 .46 0 1 1 0 0 1 .42.25l1.53 1.88a11.31 11.31 0 0 0 3.27-2.28 11.72 11.72 0 0 0 2.26-3.25l-1.87-1.54a.83.83 0 0 1-.25-.42.59.59 0 0 1 0-.45l1.5-3.5a.67.67 0 0 1 .34-.38.73.73 0 0 1 .5-.06z"/><path d="M35.5 53.5a18 18 0 1 1 18-18 18 18 0 0 1-18 18zm0-35a17 17 0 1 0 17 17 17 17 0 0 0-17-17z" opacity=".2"/><path d="M35.5 71A35.5 35.5 0 1 1 71 35.5 35.55 35.55 0 0 1 35.5 71zm0-70A34.5 34.5 0 1 0 70 35.5 34.54 34.54 0 0 0 35.5 1z" opacity=".06"/></symbol><symbol id="phone-talk" viewBox="0 0 61.6 62.6"><g fill="none" stroke="#ffd200" stroke-width="2" stroke-linecap="round" stroke-linejoin="round" stroke-miterlimit="10"><path d="M26.7 44.8c-.9 0-1.8.2-2.9.8-.1 0-.2.1-.2.2h0c-.9 0-3.4-1.6-5.3-4.5-.5-.7-1-1.5-1.4-2.4-.4-.8-.8-1.7-1.2-2.5-.6-1.6-1-3.3-1.1-4.8 0-1.4.2-2 .3-2.2.1 0 .2-.1.3-.1 3.4-2 3.6-4.5 2.6-9.1-.6-2.9-1.2-5.9-3.1-7.1-.6-.4-1.3-.6-2.3-.6-.8 0-1.7.1-2.3.3-1.9.6-4.1 2-5.5 3.7C1.9 19.8 1 24.3 1 27.4c0 5.1 1.9 11.5 4.9 17.2s7.3 10.9 11.5 13.8c2.9 2 6.5 3.2 9.6 3.2.4 0 .9 0 1.3-.1 2.2-.2 4.6-1.2 6.2-2.5.7-.5 2.4-2.3 2.4-4 0-2.2-2-4.4-4.1-6.5-2.3-2.3-4-3.7-6.1-3.7zM41.7 33.3c-2.5 0-5-.4-7.3-1.3-.3-.1-.5-.1-.8 0l-6.3 2 1.9-3.4c.3-.5.2-1.2-.3-1.6-3.9-3.1-6.1-7.4-6.1-11.9C22.7 8.3 31.2 1 41.7 1c10.4 0 18.9 7.3 18.9 16.2s-8.5 16.1-18.9 16.1z"/><path d="M34.9 17.2c0-.9-.8-1.7-1.7-1.7s-1.7.8-1.7 1.7.8 1.7 1.7 1.7c1 0 1.7-.8 1.7-1.7zM43.3 17.2c0-.9-.8-1.7-1.7-1.7s-1.7.8-1.7 1.7.8 1.7 1.7 1.7c.9 0 1.7-.8 1.7-1.7zM51.3 17.2c0-.9-.8-1.7-1.7-1.7s-1.7.8-1.7 1.7.8 1.7 1.7 1.7c.9 0 1.7-.8 1.7-1.7z"/></g></symbol><symbol id="quality" viewBox="0 0 67.3 67"><path d="M33.6.638l-4.2 2.9-5.1-1.1-2.8 4.3-5.1 1-1 5.1-4.3 2.8 1.1 5.1-2.9 4.2 2.9 4.2-1.1 5.1 4.3 2.8 1 5.1 5.1 1 2.8 4.3 5.1-1.1 4.2 2.9 4.2-2.9 5 1.1 2.8-4.3 5.1-1 1-5.1 4.3-2.8-1.1-5.1 2.9-4.2-2.8-4.3 1.1-5.1-4.3-2.8-1-5.1-5.1-1-2.8-4.3-5 1.1-4.3-2.8zm0 10.6l4.2 8.5 9.4 1.4-6.8 6.6 1.6 9.3-8.4-4.5-8.4 4.4 1.6-9.3-6.8-6.6 9.4-1.4 4.2-8.4zm-19.8 26.3l-12.7 19.9 11.4-2.3 3 10.6 10.4-17.3m15.5 0l10.4 17.3 3-10.6 11.4 2.3-12.7-19.8" fill="none" stroke="#ffd200" stroke-width="2" stroke-linecap="round" stroke-linejoin="round" stroke-miterlimit="10"/></symbol><symbol id="stones" viewBox="0 0 88.878 66.166"><path d="M20.446 53.026s-7.248 5.05-2.498 8.653c4.749 3.603 15.846 2.93 18.527.484 2.682-2.445 2.233-10.395-2.588-10.296-4.821.099-8.004-1.578-13.441 1.159zM43.966 53.581s-6.275 4.909-3.272 8.341c3.003 3.432 15.494 2.153 15.82-.695.326-2.848-.005-10.499-4.692-9.484-4.687 1.017-6.211.301-7.856 1.838zM10.589 62.905s5.906-3.033 4.041-6.497c-1.865-3.464-12.211-4.646-12.948-2.285S-.06 63.05 3.911 63.039c3.971-.01 5.089.874 6.678-.134zM65.66 65.161s-7.343.176-7.286-4.385c.058-4.56 4.987-8.355 7.331-8.022 2.345.333 8.665 1.267 8.981 5.114.316 3.846-.721 5.553-1.595 6.067-.872.514-5.997 1.296-7.431 1.226zM54.869 40.537s-8.052 1.258-4.781 6.039 11.449 8.681 14.343 4.151c2.894-4.529 2.013-10.316-.881-10.191-2.893.127-4.823-1.37-8.681.001zM68.441 47.061s1.761 8.43 8.43 6.668c6.668-1.761 9.687-8.304 6.165-11.198-3.523-2.894-8.052-5.536-11.198-2.39-3.144 3.146-3.886 5.329-3.397 6.92zM42.111 40.768s-10.443-4.278-13.713 1.636c-3.271 5.914 1.007 8.158 4.151 8.169 3.146.009 14.609 3.532 14.665-2.004.055-5.536-5.103-7.801-5.103-7.801zM12.295 39.12s-8.933 3.649-5.033 8.807 7.172 7.297 10.065 5.787c2.894-1.51 7.926-5.061 7.801-7.06s-.881-7.786-4.781-7.534-2.643-1.51-8.052 0zM57.68 29.285s8.56-4.907 14.348 0 .856 9.311-1.27 9.562c-2.127.251-12.326 1.258-13.077-1.132s-4.456-6.717-.001-8.43zM28.234 27.801S19 23.523 16.107 29.437s.89 8.158 3.672 8.169 12.919 3.532 12.968-2.004c.049-5.536-4.513-7.801-4.513-7.801zM41.207 29.901s-8.323 2.866-3.951 6.9 13.793 6.21 16.022 1.174c2.229-5.035.209-10.543-2.843-9.833-3.053.711-5.384-.368-9.228 1.759zM29.025 23.498s2.876-7.635 9.226-5.853 5.538 7.512 4.306 8.593c-1.233 1.081-7.253 6.091-9.016 4.379-1.764-1.713-6.462-3.856-4.516-7.119zM77.133 55.89s-2.154 4.834.987 6.974c3.141 2.139 10.527-.944 9.693-3.191-.834-2.248-3.834-8.086-6.41-6.516-2.578 1.569-3.796 1.274-4.27 2.733zM58.769 15.823s-10.989-2.567-13.28 3.791 2.288 7.896 5.396 7.406 14.985 1.169 14.161-4.305c-.824-5.474-6.277-6.892-6.277-6.892zM27.909 13.849s3.471 3.996 6.737 2.053c3.266-1.942 3.594-9.94 1.204-10.134-2.389-.194-8.948.058-8.615 3.056.333 2.999-.449 3.979.674 5.025zM27.943 18.121s-2.37-4.732-6.016-3.662-5.949 8.736-3.683 9.518 8.683 2.166 9.104-.821c.421-2.989 1.423-3.743.595-5.035zM41.052 5.805s-4.341 6.68-.387 8.952c3.954 2.271 15.353-2.994 14.737-5.793s-3.413-9.93-7.517-7.447-5.777 2.3-6.833 4.288z" fill="none" stroke="#ffd200" stroke-width="2" stroke-miterlimit="10"/></symbol><symbol id="truck" viewBox="0 0 113.5 60.465"><g fill="none" stroke="#ffd200" stroke-width="2" stroke-linecap="round" stroke-linejoin="round" stroke-miterlimit="10"><path d="M1 4.279v46.896h15.741c.656-4.755 4.591-8.526 9.51-8.526s8.854 3.771 9.51 8.526h51.651c.656-4.755 4.591-8.526 9.51-8.526s8.854 3.771 9.51 8.526h6.067V31.499s-.492-4.591-4.263-8.526l-5.083-12.626h-8.035v-.82c0-1.148-.984-2.132-2.132-2.132-1.148 0-2.132.984-2.132 2.132v.82H75.935v34.106h-4.263l-.085-39.354V1H66.26v5.739H10.838v-2.46H1zm84.281 19.677V13.79h15.249l4.099 10.166H85.281z"/><path d="M19.879 52.209c-.134.269-.134.672-.134.941 0 3.494 2.822 6.316 6.316 6.316s6.316-2.822 6.316-6.316c0-.269-.134-.672-.134-.941-.403-3.091-2.957-5.375-6.182-5.375s-5.779 2.418-6.182 5.375z"/></g><path d="M90.753 52.209c-.134.269-.134.672-.134.941 0 3.494 2.822 6.316 6.316 6.316s6.316-2.822 6.316-6.316c0-.269-.134-.672-.134-.941-.403-3.091-2.957-5.375-6.182-5.375-3.225-.001-5.779 2.418-6.182 5.375z" fill="none" stroke="#ffd200" stroke-width="2" stroke-linecap="round" stroke-linejoin="round" stroke-miterlimit="10"/></symbol><symbol id="wallet" viewBox="0 0 77.3 64.6"><g fill="none" stroke="#ffd200" stroke-width="2" stroke-linecap="round" stroke-linejoin="round" stroke-miterlimit="10"><path d="M76.3 32.1v21.3M47.8 8.5V3.9h24.6c.7 0 1.2.6 1.2 1.2v10.1m-45.3-.3V10c0-.7.6-1.2 1.2-1.2h35.1c.7 0 1.2.6 1.2 1.2v5.1m-57 0V2.2c0-.6.6-1.2 1.2-1.2h33.8c.7 0 1.2.6 1.2 1.2v6.4M1 14.3c0-1.8 1.4-3.2 3.2-3.2h4.2M75 63.6H2.2c-.6 0-1.2-.6-1.2-1.3v-48c.9.6 2 .9 3.2.9h68.9c1.8 0 3.2 1.7 3.2 3.8v13.2h-9.6c-5.5 0-10 4.7-10 10.5s4.5 10.5 10 10.5h9.6v9c0 .8-.6 1.4-1.3 1.4z"/><path d="M62.1 42.9c0 2.9 2.3 5.3 5.2 5.3s5.2-2.4 5.2-5.3-2.3-5.3-5.2-5.3c-2.9 0-5.2 2.3-5.2 5.3zM6.6 21.8H10M29.1 21.8h6.4M41.8 21.8h6.4M54.5 21.8h6.4M16.4 21.8h6.4M67.2 21.8h3.4"/></g></symbol></svg>