<svg xmlns="http://www.w3.org/2000/svg" xmlns:xlink="http://www.w3.org/1999/xlink"><symbol id="arrow-left" viewBox="0 0 36.2 18.7"><path d="M9.6.5L1.2 8.7h0l-.7.7.6.6h0l8.4 8.2M35.7 9.4H.7" fill="none" stroke="#000" stroke-linecap="round" stroke-linejoin="round" stroke-miterlimit="10"/></symbol><symbol id="arrow-right" viewBox="0 0 36.3 18.7"><style>.st0{fill:none;stroke:#000;stroke-linecap:round;stroke-linejoin:round;stroke-miterlimit:10}</style><path class="st0" d="M26.7 18.2l8.4-8.2.6-.6-.7-.7L26.6.5M35.5 9.4H.5"/></symbol><symbol id="cards" viewBox="0 0 77 69.691"><path d="M5.075 21.388h0L59.83 8.97M12.342 50.296l-.059.018c-2.057.464-4.106-.843-4.578-2.892L1.121 18.32c-.278-1.239-.076-2.403.599-3.482.674-1.079 1.661-1.754 2.9-2.032h0v-.001L56.585 1.113a4.61 4.61 0 0 1 5.505 3.482l5.446 24.069m-49.428.867c-2.538 0-4.603 2.074-4.603 4.612v29.945a4.61 4.61 0 0 0 4.603 4.603h53.28c2.537 0 4.611-2.074 4.611-4.603V34.143a4.624 4.624 0 0 0-4.611-4.612h-53.28 0zm52.159 13.405v-6.095a.702.702 0 0 0-.708-.708H55.927a.712.712 0 0 0-.708.708v6.095c0 .388.32.708.708.708h13.632c.38 0 .708-.312.708-.708h0zM60.218 61.415a.714.714 0 0 1-.717-.708v-1.416c0-.388.32-.708.717-.708h9.332c.388 0 .708.32.708.708v1.416c0 .388-.32.708-.708.708h-9.332 0zm-13.025 0a.712.712 0 0 1-.708-.708v-1.408c0-.396.32-.708.708-.708h9.341c.388 0 .708.32.708.708v1.408c0 .388-.32.708-.708.708h-9.341 0zm-13.016 0a.712.712 0 0 1-.708-.708v-1.408c0-.396.32-.708.708-.708h9.341c.388 0 .708.32.708.708v1.408c0 .388-.32.708-.708.708h-9.341 0zm-13.017 0a.712.712 0 0 1-.708-.708v-1.408c0-.396.32-.708.708-.708h9.341c.388 0 .708.32.708.708v1.408c0 .388-.32.708-.708.708H21.16z" fill="none" stroke="#ffd200" stroke-width="2" stroke-linecap="round" stroke-linejoin="round" stroke-miterlimit="10"/></symbol><symbol id="crane" viewBox="0 0 77.4 61.9"><path d="M51.4 32H38.9c-.6 0-1-.4-1-1v-3.5c0-.2 0-.3.1-.4l3.3-6.5c.2-.3.5-.6.9-.6h9.2c.6 0 1 .4 1 1v10c0 .5-.4 1-1 1zm-11.5-2h10.5v-8h-7.6l-2.9 5.8V30z" fill="#ffd200"/><path d="M67.6 61.9h-6.2c-.6 0-1-.4-1-1v-1.5h-.5v1.5c0 .6-.4 1-1 1h-2.5c-.6 0-1-.4-1-1v-1.5h-.5v1.5c0 .6-.4 1-1 1h-2.5c-.6 0-1-.4-1-1v-1.5h-.5v1.5c0 .6-.4 1-1 1h-2.5c-.6 0-1-.4-1-1v-1.5h-.5v1.5c0 .6-.4 1-1 1h-2.5c-.6 0-1-.4-1-1v-1.5h-.5v1.5c0 .6-.4 1-1 1h-2.5c-.6 0-1-.4-1-1v-1.5h-.5v1.5c0 .6-.4 1-1 1h-6.2c-4 0-7.2-3.2-7.2-7.2s3.2-7.2 7.2-7.2h.2v-4c0-.6.4-1 1-1h6.5v-5.2c0-.1 0-.1-.1-.2L33.2 35c-.2-.2-.3-.4-.3-.7v-4L21.1 18.8c-.4-.4-.7-1-.7-1.6v-.9c-.5-.1-.9-.5-.9-1V12H10v18h1.5c.6 0 1 .4 1 1v2.5c0 .6-.4 1-1 1H8.7v5.2c0 1.2-1 2.2-2.2 2.2-.9.1-1.5.7-1.5 1.6S5.6 45 6.5 45c.8 0 1.5-.7 1.5-1.5 0-.6.4-1 1-1h2.5c.6 0 1 .4 1 1 0 2.7-1.8 5.1-4.5 5.8-3.2.8-6.5-1.1-7.3-4.3-.8-3 .8-6 3.5-7.1v-3.4H1.5c-.6 0-1-.4-1-1V31c0-.6.4-1 1-1H3V13.1H1c-.6 0-1-.4-1-1V1c0-.6.4-1 1-1h74.2c1.2 0 2.2 1 2.2 2.2V11c0 .6-.4 1-1 1h-1.5v10.5h.2c1.2 0 2.2 1 2.2 2.2v12.5c0 1.2-1 2.2-2.2 2.2h-9.9c-1.2 0-2.2-1-2.2-2.2v-2.7h-3v7.7c0 1.2-1 2.2-2.2 2.2h-.2v3h1.5c.6 0 1 .4 1 1V50h.5v-1.5c0-.6.4-1 1-1h6.2c4 0 7.2 3.3 7.2 7.2-.1 4-3.4 7.2-7.4 7.2zm-5.2-2h5.2c2.9 0 5.2-2.4 5.2-5.2 0-2.9-2.4-5.2-5.2-5.2h-5.2V51c0 .6-.4 1-1 1h-2.5c-.6 0-1-.4-1-1v-1.5h-.5V51c0 .6-.4 1-1 1h-2.5c-.6 0-1-.4-1-1v-1.5h-.5V51c0 .6-.4 1-1 1h-2.5c-.6 0-1-.4-1-1v-1.5h-.5V51c0 .6-.4 1-1 1h-2.5c-.6 0-1-.4-1-1v-1.5h-.5V51c0 .6-.4 1-1 1h-2.5c-.6 0-1-.4-1-1v-1.5h-.5V51c0 .6-.4 1-1 1h-2.5c-.6 0-1-.4-1-1v-1.5h-5.2c-2.9 0-5.2 2.4-5.2 5.2s2.4 5.2 5.2 5.2h5.2v-1.5c0-.6.4-1 1-1h2.5c.6 0 1 .4 1 1v1.5h.5v-1.5c0-.6.4-1 1-1h2.5c.6 0 1 .4 1 1v1.5h.5v-1.5c0-.6.4-1 1-1h2.5c.6 0 1 .4 1 1v1.5h.5v-1.5c0-.6.4-1 1-1h2.5c.6 0 1 .4 1 1v1.5h.5v-1.5c0-.6.4-1 1-1h2.5c.6 0 1 .4 1 1v1.5h.5v-1.5c0-.6.4-1 1-1h2.5c.6 0 1 .4 1 1v1.5zM54.9 50h.5v-5.5H29.9v3h4c.6 0 1 .4 1 1V50h.5v-1.5c0-.6.4-1 1-1h2.5c.6 0 1 .4 1 1V50h.5v-1.5c0-.6.4-1 1-1h2.5c.6 0 1 .4 1 1V50h.5v-1.5c0-.6.4-1 1-1h2.5c.6 0 1 .4 1 1V50h.5v-1.5c0-.6.4-1 1-1h2.5c.6 0 1 .4 1 1V50zM6.2 34.5v4.2c0 .5-.3.9-.8 1-2.1.6-3.4 2.7-2.9 4.9.6 2.1 2.7 3.4 4.9 2.9 1.4-.4 2.5-1.5 2.9-2.9h-.5C9.4 45.9 8 47 6.5 47c-2 0-3.5-1.6-3.5-3.5S4.5 40 6.5 40c.1 0 .2-.1.2-.2v-5.2h-.5v-.1zm51.2 8h.2c.1 0 .2-.1.2-.2v-8.7c0-.6.4-1 1-1h4V27h-5.5v15.5h.1zm-20 0h18V17H39.1L35 26.4v7.5l1.8 1.8c.4.4.7 1 .7 1.6v5.2h-.1zm33.2-5h4.5c.1 0 .2-.1.2-.2v-4.6l-4.7 4.8zm-5.6-.1h2.7l7.6-7.6V27L65 37.4zm-.1-3.9v1.2l10.2-10.2h-3.8l-6.4 6.4v2.6zm-57-1h2.5V32h-8v.5h5c.2-.1.4-.1.5 0zM5 30h3V10.3H5.3c-.2 0-.4.2-.4.4V30H5zm59.9-4v2l3.6-3.6h-3.3c-.1 0-.2.1-.2.2V26h-.1zm-42.5-9.6v.9c0 .1 0 .1.1.2l10.4 10v-.6l-9.7-9.4c-.2-.2-.3-.4-.3-.7v-.4h-.5zm35 8.6h5.5v-.2c0-1.2 1-2.2 2.2-2.2h.2V12H25.8v3.4c0 .5-.4.9-.9 1l8.5 8.3 4-9.1c.2-.4.5-.6.9-.6h17.9c.6 0 1 .4 1 1v9h.2zm10-2.5h5.5v-8h-5.5v8zm-45.9-8.1h2.4V12h-2.4v2.4zm45.9-1.9h5.5V12h-5.5v.5zM2 11.1h1v-.4c0-1.3 1-2.4 2.3-2.4h2.6V4.8H5.2c-1.3 0-2.4-1.1-2.4-2.4V2H2v9.1zM73.9 10h1.5v-.7l-.1-.1-6-7.2h-3.9l6 8h2.5zm-7.5 0h2.5l-6-8h-5l6 8h2.5zm-10 0h5l-6-8h-5l6 8zm-7.5 0h5l-6-8h-5l6 8zm-7.5 0h5l-6-8h-5l6 8zm-7.5 0h5l-6-8h-5l6 8zm-7.5 0h5l-6-8h-5l6 8zm-7.5 0h5l-6-8h-5l6 8zM10 10h6.5l-6-8H4.8v.4c0 .2.2.4.4.4H9c.6 0 1 .4 1 1V10zm61.9-8l3.5 4.1V2.3c0-.1-.1-.2-.2-.2h-3.3V2z" fill="#ffd200"/><path d="M53.9 39.5h-5c-.6 0-1-.4-1-1s.4-1 1-1h5c.6 0 1 .4 1 1s-.4 1-1 1zM67.6 56.9c-1.2 0-2.2-1-2.2-2.2s1-2.2 2.2-2.2 2.2 1 2.2 2.2c.1 1.2-.9 2.2-2.2 2.2zm0-2.5c-.1 0-.2.1-.2.2 0 .3.5.3.5 0 0 0-.1-.2-.3-.2zm-39.9 2.5c-1.2 0-2.2-1-2.2-2.2s1-2.2 2.2-2.2 2.2 1 2.2 2.2c0 1.2-1 2.2-2.2 2.2zm0-2.5c-.1 0-.2.1-.2.2 0 .3.5.3.5 0-.1 0-.2-.2-.3-.2z" fill="#ffd200"/></symbol><symbol id="logo-blue" viewBox="0 0 335.589 62.036"><path d="M112.46 61.651h-6.736V35.28h16.708v6.122h-9.972zM132.632 61.651h-6.738V35.28h8.894c3.182 0 5.723.81 7.622 2.427 1.899 1.615 2.849 3.798 2.849 6.543 0 2.747-.95 4.928-2.849 6.545-1.899 1.617-4.44 2.426-7.622 2.426h-2.156v8.43zm5.698-17.401c0-.897-.315-1.597-.944-2.097-.628-.501-1.495-.751-2.598-.751h-2.156V47.1h2.156c1.103 0 1.97-.25 2.598-.751.629-.5.944-1.2.944-2.099M171.746 61.651h-7.2l-1.539-4.12h-10.509l-1.54 4.12h-6.814l10.394-26.371h6.813l10.395 26.371zm-13.974-18.17l-3.042 8.123h6.045l-3.003-8.123zM198.232 61.651h-6.929V51.217h-9.702v10.434h-6.929V35.28h6.929v9.818h9.702V35.28h6.929zM227.296 61.651h-7.969l-6.313-10.625a11.88 11.88 0 0 1-1.213.173 13.63 13.63 0 0 1-1.251.057v10.395h-6.93V35.28h6.93v9.855c1.001-.024 1.79-.217 2.368-.576.576-.36 1.16-1.027 1.751-2.003l4.311-7.276h7.469l-4.388 7.199a53.059 53.059 0 0 1-1.848 2.869 32.419 32.419 0 0 1-1.617 2.136l8.7 14.167zM255.322 61.651h-7.2l-1.539-4.12h-10.509l-1.54 4.12h-6.814l10.395-26.371h6.813l10.394 26.371zm-13.974-18.17l-3.041 8.123h6.044l-3.003-8.123zM264.985 61.651h-6.737V35.28h8.893c3.183 0 5.723.81 7.623 2.427 1.898 1.615 2.848 3.798 2.848 6.543 0 2.747-.95 4.928-2.848 6.545-1.9 1.617-4.44 2.426-7.623 2.426h-2.156v8.43zm5.698-17.401c0-.897-.314-1.597-.943-2.097-.629-.501-1.496-.751-2.599-.751h-2.156V47.1h2.156c1.103 0 1.97-.25 2.599-.751.629-.5.943-1.2.943-2.099M287.544 35.28l-3.311 10.395h-4.812l1.193-10.395zM308.717 52.913l4.272 4.618c-1.488 1.541-3.054 2.677-4.696 3.408-1.642.731-3.438 1.097-5.389 1.097-3.927 0-7.206-1.289-9.835-3.869-2.632-2.579-3.947-5.806-3.947-9.682 0-3.875 1.315-7.108 3.947-9.702 2.629-2.591 5.908-3.887 9.835-3.887 1.847 0 3.586.353 5.216 1.058 1.63.707 3.124 1.74 4.486 3.1l-4.197 4.62c-.846-.847-1.713-1.47-2.598-1.867-.886-.398-1.856-.597-2.907-.597-1.386 0-2.625.384-3.716 1.154-1.091.771-1.893 1.81-2.406 3.118h9.933v5.66h-10.049c.488 1.385 1.297 2.497 2.427 3.331a6.25 6.25 0 0 0 3.811 1.25c1.078 0 2.066-.217 2.964-.656.898-.434 1.847-1.154 2.849-2.154M322.962 61.651h-6.738V35.28h8.893c3.183 0 5.723.81 7.623 2.427 1.898 1.615 2.849 3.798 2.849 6.543 0 2.747-.951 4.928-2.849 6.545-1.9 1.617-4.44 2.426-7.623 2.426h-2.155v8.43zm5.697-17.401c0-.897-.314-1.597-.943-2.097-.629-.501-1.495-.751-2.599-.751h-2.155V47.1h2.155c1.104 0 1.97-.25 2.599-.751.629-.5.943-1.2.943-2.099M110.643 25.199h-4.919V.05h7.818c2.987 0 5.336.729 7.049 2.185 1.714 1.456 2.571 3.457 2.571 6.002 0 2.522-.87 4.518-2.606 5.985-1.739 1.468-4.076 2.203-7.014 2.203h-2.899v8.774zm7.452-16.962c0-1.175-.397-2.085-1.193-2.734-.796-.648-1.904-.973-3.323-.973h-2.936v7.453h2.936c1.444 0 2.557-.325 3.341-.974.783-.648 1.175-1.571 1.175-2.772M134.395 25.456c-2.552 0-4.685-.86-6.398-2.582-1.713-1.721-2.57-3.876-2.57-6.465 0-2.586.857-4.745 2.57-6.475 1.713-1.73 3.846-2.595 6.398-2.595 2.554 0 4.687.865 6.4 2.595s2.57 3.889 2.57 6.475c0 2.589-.857 4.744-2.57 6.465-1.713 1.722-3.846 2.582-6.4 2.582m0-3.238c1.525 0 2.798-.552 3.817-1.657 1.019-1.105 1.529-2.488 1.529-4.152 0-1.66-.51-3.048-1.529-4.162-1.019-1.114-2.292-1.67-3.817-1.67-1.523 0-2.796.556-3.815 1.67-1.021 1.114-1.529 2.502-1.529 4.162 0 1.664.508 3.047 1.529 4.152 1.019 1.105 2.292 1.657 3.815 1.657M150.405 17.772h-.333v7.427h-3.521V7.596h3.521v7.042h.281c.907 0 1.594-.142 2.057-.424.463-.283.959-.862 1.491-1.735l2.98-4.883h3.779l-2.983 4.858a33.36 33.36 0 0 1-1.194 1.837c-.369.522-.724.98-1.067 1.376l5.834 9.533h-4.034l-4.678-7.658a6.337 6.337 0 0 1-1.016.179c-.35.034-.723.051-1.117.051M178.159 25.199h-3.314V12.761l-7.762 12.438h-3.393V7.595h3.316v12.414l7.787-12.414h3.366zM185.997 10.73h-5.165V7.596h13.851v3.134h-5.165V25.2h-3.521zM212.184 25.199h-3.521V17.72h-7.811v7.479h-3.522V7.595h3.522v6.991h7.811V7.595h3.521zM215.963 12.89c0-1.593.583-2.874 1.748-3.842 1.165-.969 2.707-1.452 4.626-1.452h6.45v17.603h-3.418v-6.733h-2.108l-4.446 6.733h-3.855l4.961-7.272c-1.234-.343-2.202-.96-2.905-1.851-.702-.89-1.053-1.953-1.053-3.186m3.521.153c0 .704.247 1.264.744 1.684.497.42 1.157.629 1.98.629h3.161V10.73h-3.161c-.823 0-1.483.21-1.98.63-.497.42-.744.981-.744 1.683M247.93 25.199h-3.521V17.72h-7.811v7.479h-3.522V7.595h3.522v6.991h7.811V7.595h3.521zM260.086 10.577c-1.524 0-2.797.556-3.816 1.67-1.02 1.113-1.529 2.502-1.529 4.162 0 1.664.509 3.047 1.529 4.151 1.019 1.106 2.292 1.658 3.816 1.658.84 0 1.611-.167 2.313-.501.703-.334 1.396-.861 2.082-1.58l2.209 2.364c-.958.993-1.987 1.734-3.083 2.222a8.547 8.547 0 0 1-3.521.733c-2.553 0-4.686-.86-6.398-2.582-1.714-1.722-2.57-3.876-2.57-6.465 0-2.586.856-4.745 2.57-6.476 1.712-1.729 3.845-2.594 6.398-2.594 1.199 0 2.339.23 3.418.693 1.08.462 2.057 1.141 2.93 2.03l-2.159 2.365c-.616-.617-1.272-1.079-1.966-1.387a5.387 5.387 0 0 0-2.223-.463M282.392 19.828c0 1.661-.604 2.973-1.812 3.932-1.208.96-2.832 1.439-4.87 1.439h-6.348V7.596h3.444v6.862h2.904c2.038 0 3.662.483 4.87 1.452 1.208.968 1.812 2.273 1.812 3.918m-3.521 0c0-.72-.274-1.275-.823-1.671-.548-.393-1.32-.59-2.312-.59h-2.93v4.523h2.93c.977 0 1.742-.197 2.299-.592.558-.394.836-.95.836-1.67M289.073 17.772h-.333v7.427h-3.521V7.596h3.521v7.042h.282c.907 0 1.594-.142 2.057-.424.462-.283.959-.862 1.49-1.735l2.981-4.883h3.778l-2.982 4.858a32.755 32.755 0 0 1-1.195 1.837c-.369.522-.724.98-1.066 1.376l5.834 9.533h-4.035l-4.678-7.658a6.324 6.324 0 0 1-1.015.179c-.35.034-.724.051-1.118.051M316.828 25.199h-3.315V12.761l-7.761 12.438h-3.393V7.595h3.315v12.414l7.787-12.414h3.367zM335.589 25.199h-3.316V12.762l-7.761 12.437h-3.392V7.596h3.314v12.413l7.787-12.413h3.368v17.603zm-7.017-18.786c-1.233 0-2.253-.337-3.058-1.015-.805-.676-1.208-1.537-1.208-2.583v-.616h2.596v.463c0 .53.145.942.437 1.232.292.291.702.438 1.233.438.549 0 .964-.138 1.247-.412.283-.273.424-.676.424-1.208v-.513h2.646v.668c0 1.064-.402 1.919-1.208 2.569-.805.653-1.84.977-3.109.977"/><path fill="#0060b1" d="M44.051 0L0 44.051l8.81 8.81L44.051 17.62l26.432 26.431-8.811 8.81H44.051l8.811-8.81-8.811-8.81L17.62 61.672h52.863l17.62-17.621z"/></symbol><symbol id="logo" viewBox="0 0 387.143 71.566"><path d="M129.737 71.123h-7.772V40.701h19.275v7.062h-11.503zM153.008 71.123h-7.773V40.701h10.26c3.671 0 6.602.934 8.794 2.799 2.19 1.863 3.285 4.381 3.285 7.548 0 3.17-1.095 5.685-3.285 7.551-2.192 1.865-5.123 2.799-8.794 2.799h-2.487v9.725zm6.573-20.075c0-1.035-.363-1.842-1.089-2.419-.725-.578-1.725-.866-2.997-.866h-2.487v6.573h2.487c1.272 0 2.272-.289 2.997-.867.726-.577 1.089-1.384 1.089-2.421M198.13 71.123h-8.306l-1.775-4.753h-12.124l-1.777 4.753h-7.861l11.992-30.422h7.86l11.991 30.422zm-16.12-20.962l-3.51 9.371h6.974l-3.464-9.371zM228.685 71.123h-7.994V59.087h-11.193v12.036h-7.993V40.701h7.993v11.325h11.193V40.701h7.994zM262.215 71.123h-9.193l-7.285-12.258c-.443.088-.91.155-1.398.2-.488.045-.97.067-1.443.067v11.991h-7.994V40.701h7.994V52.07c1.155-.028 2.065-.252 2.732-.665.665-.415 1.339-1.185 2.021-2.31l4.972-8.394h8.617l-5.063 8.305a61.146 61.146 0 0 1-2.132 3.309 36.534 36.534 0 0 1-1.865 2.464l10.037 16.344zM294.546 71.123h-8.306l-1.775-4.753h-12.124l-1.777 4.753h-7.861l11.992-30.422h7.86l11.991 30.422zm-16.12-20.962l-3.51 9.371h6.974l-3.464-9.371zM305.693 71.123h-7.772V40.701h10.259c3.671 0 6.602.934 8.794 2.799 2.19 1.863 3.285 4.381 3.285 7.548 0 3.17-1.095 5.685-3.285 7.551-2.192 1.865-5.123 2.799-8.794 2.799h-2.487v9.725zm6.573-20.075c0-1.035-.363-1.842-1.089-2.419-.724-.578-1.724-.866-2.997-.866h-2.487v6.573h2.487c1.273 0 2.273-.289 2.997-.867.726-.577 1.089-1.384 1.089-2.421M331.718 40.701l-3.819 11.991h-5.551l1.377-11.991zM356.143 61.042l4.93 5.328c-1.717 1.777-3.525 3.088-5.418 3.931-1.896.844-3.968 1.265-6.218 1.265-4.53 0-8.313-1.487-11.347-4.462-3.035-2.976-4.552-6.699-4.552-11.169 0-4.472 1.517-8.201 4.552-11.193 3.034-2.989 6.817-4.484 11.347-4.484 2.132 0 4.137.406 6.018 1.22 1.88.815 3.604 2.006 5.174 3.576l-4.841 5.329c-.977-.977-1.977-1.695-2.998-2.154-1.021-.458-2.14-.688-3.353-.688-1.6 0-3.028.443-4.286 1.332-1.259.889-2.185 2.087-2.777 3.598h11.46v6.527h-11.592c.563 1.599 1.495 2.881 2.798 3.843a7.216 7.216 0 0 0 4.397 1.442c1.243 0 2.384-.25 3.42-.756 1.035-.501 2.131-1.331 3.286-2.485M372.576 71.123h-7.773V40.701h10.26c3.671 0 6.602.934 8.793 2.799 2.19 1.863 3.286 4.381 3.286 7.548 0 3.17-1.096 5.685-3.286 7.551-2.191 1.865-5.122 2.799-8.793 2.799h-2.487v9.725zm6.573-20.075c0-1.035-.364-1.842-1.089-2.419-.725-.578-1.725-.866-2.997-.866h-2.487v6.573h2.487c1.272 0 2.272-.289 2.997-.867.725-.577 1.089-1.384 1.089-2.421M127.639 29.07h-5.674V.06h9.02c3.444 0 6.155.839 8.132 2.519 1.976 1.68 2.966 3.988 2.966 6.924 0 2.91-1.004 5.211-3.007 6.904-2.007 1.694-4.702 2.542-8.091 2.542h-3.346V29.07zm8.598-19.567c0-1.355-.459-2.405-1.377-3.154-.918-.747-2.195-1.122-3.832-1.122h-3.389v8.597h3.389c1.665 0 2.949-.374 3.854-1.123.903-.747 1.355-1.812 1.355-3.198M155.041 29.367c-2.944 0-5.404-.992-7.381-2.978-1.976-1.987-2.965-4.473-2.965-7.458 0-2.985.989-5.475 2.965-7.471 1.977-1.995 4.437-2.994 7.381-2.994 2.946 0 5.406.999 7.383 2.994 1.976 1.996 2.965 4.486 2.965 7.471 0 2.985-.989 5.471-2.965 7.458-1.977 1.986-4.437 2.978-7.383 2.978m0-3.736c1.76 0 3.228-.636 4.404-1.912 1.175-1.274 1.763-2.869 1.763-4.788 0-1.915-.588-3.518-1.763-4.802-1.176-1.285-2.644-1.927-4.404-1.927-1.758 0-3.226.642-4.402 1.927-1.176 1.284-1.763 2.887-1.763 4.802 0 1.919.587 3.514 1.763 4.788 1.176 1.276 2.644 1.912 4.402 1.912M173.51 20.503h-.384v8.567h-4.062V8.763h4.062v8.123h.324c1.048 0 1.84-.164 2.373-.488.534-.327 1.107-.995 1.72-2.002l3.439-5.633h4.358l-3.439 5.603a38.02 38.02 0 0 1-1.378 2.119 19.793 19.793 0 0 1-1.232 1.587l6.731 10.998h-4.655l-5.396-8.834c-.374.1-.766.167-1.172.207-.404.04-.835.06-1.289.06M205.529 29.07h-3.824V14.722l-8.954 14.348h-3.913V8.762h3.824v14.321l8.983-14.321h3.884zM214.57 12.38h-5.958V8.763h15.979v3.617h-5.959v16.69h-4.062zM244.78 29.07h-4.062v-8.627h-9.011v8.627h-4.063V8.762h4.063v8.064h9.011V8.762h4.062zM249.14 14.87c0-1.838.671-3.315 2.015-4.432 1.344-1.117 3.124-1.675 5.337-1.675h7.441V29.07h-3.943v-7.766h-2.431l-5.129 7.766h-4.448l5.724-8.389c-1.424-.395-2.54-1.108-3.351-2.135-.81-1.026-1.215-2.253-1.215-3.676m4.062.177c0 .812.285 1.458.858 1.942.574.486 1.335.727 2.284.727h3.646V12.38h-3.646c-.949 0-1.71.241-2.284.726-.573.485-.858 1.131-.858 1.941M286.017 29.07h-4.061v-8.627h-9.011v8.627h-4.063V8.762h4.063v8.064h9.011V8.762h4.061zM300.041 12.202c-1.758 0-3.226.642-4.402 1.927-1.176 1.284-1.763 2.886-1.763 4.802 0 1.918.587 3.514 1.763 4.788 1.176 1.276 2.644 1.912 4.402 1.912.97 0 1.859-.193 2.67-.578.809-.385 1.61-.993 2.4-1.823l2.55 2.727c-1.106 1.147-2.293 2.002-3.558 2.565a9.86 9.86 0 0 1-4.062.845c-2.944 0-5.404-.992-7.381-2.978-1.976-1.988-2.964-4.473-2.964-7.458 0-2.985.988-5.475 2.964-7.471 1.977-1.995 4.437-2.994 7.381-2.994 1.384 0 2.699.266 3.943.8 1.246.534 2.373 1.316 3.38 2.343l-2.49 2.727c-.71-.711-1.468-1.244-2.268-1.601a6.253 6.253 0 0 0-2.565-.533M325.775 22.874c0 1.917-.697 3.43-2.09 4.536-1.394 1.108-3.268 1.66-5.618 1.66h-7.324V8.763h3.973v7.916h3.351c2.35 0 4.224.558 5.618 1.675 1.393 1.117 2.09 2.623 2.09 4.52m-4.062 0c0-.83-.316-1.472-.949-1.927-.633-.454-1.523-.68-2.668-.68h-3.38v5.216h3.38c1.127 0 2.01-.226 2.653-.682.643-.454.964-1.097.964-1.927M333.481 20.503h-.384v8.567h-4.062V8.763h4.062v8.123h.324c1.048 0 1.84-.164 2.373-.488.534-.327 1.107-.995 1.72-2.002l3.438-5.633h4.359l-3.439 5.603a37.989 37.989 0 0 1-1.379 2.119 20.03 20.03 0 0 1-1.231 1.587l6.731 10.998h-4.655l-5.396-8.834c-.375.1-.766.167-1.172.207-.404.04-.835.06-1.289.06M365.501 29.07h-3.824V14.722l-8.954 14.348h-3.913V8.762h3.824v14.321l8.983-14.321h3.884zM387.143 29.07h-3.824V14.722l-8.954 14.348h-3.914V8.762h3.825v14.321l8.983-14.321h3.884V29.07zm-8.094-21.671c-1.423 0-2.6-.39-3.527-1.172-.93-.78-1.394-1.772-1.394-2.978v-.711h2.994v.533c0 .611.167 1.087.504 1.422.336.336.81.505 1.423.505.633 0 1.111-.16 1.438-.476.327-.314.489-.78.489-1.394v-.59h3.053v.77c0 1.226-.463 2.213-1.393 2.964-.93.752-2.124 1.127-3.587 1.127M50.818 0L0 50.818l10.163 10.164 40.655-40.655L81.31 50.818 71.146 60.982H50.818l10.164-10.164-10.164-10.163-30.491 30.491H81.31l20.327-20.328z"/></symbol><symbol id="money" viewBox="0 0 26 17.4"><path d="M22.9 16.9H.5V3.2h22.4v13.7z" fill="none" stroke="#ffd200" stroke-linecap="round" stroke-linejoin="round" stroke-miterlimit="10"/><path d="M11.7 5.2c2.5 0 4.6 2 4.6 4.6s-2 4.6-4.6 4.6-4.6-2-4.6-4.6 2.1-4.6 4.6-4.6z" fill="none" stroke="#ffd200" stroke-linecap="round" stroke-linejoin="round" stroke-miterlimit="10"/><path fill="none" stroke="#ffd200" stroke-linecap="round" stroke-linejoin="round" stroke-miterlimit="10" d="M4.7.5h20.8v12.2"/><path d="M13.4 10.6h-2.7v.3c0 .2.1.4.2.6.2.2.4.3.7.3s.5-.1.7-.3c.1-.1.2-.3.3-.6l.6.1c0 .4-.2.7-.5.9s-.6.3-1.1.3c-.2 0-.4 0-.7-.1-.2-.1-.4-.2-.5-.3-.3-.3-.4-.6-.4-1v-.2h-.1v-.5h.4c.1-.2.3-.3.6-.4.1 0 .3-.1.7-.2H9.9v-.6h2.6c0-.1.1-.2.1-.3 0-.2-.1-.4-.2-.5-.2-.2-.4-.3-.7-.3s-.5.1-.6.2c-.1.1-.2.3-.2.5l-.6-.1c.1-.4.2-.7.5-.9.2-.2.5-.3.9-.3.5 0 .8.1 1.1.3.3.3.4.6.4 1v.3h.4v.5H13c-.1.1-.2.2-.3.2-.4.3-.7.4-1.3.5-.1 0-.1 0-.2.1h2.2v.5z" fill="#ffd200"/></symbol><symbol id="phone-header" viewBox="0 0 71 71"><path d="M42.14 28.25a.62.62 0 0 1 .44.25.82.82 0 0 1 .15.47 14.26 14.26 0 0 1-2 7.31 14.67 14.67 0 0 1-5.22 5.22 14.3 14.3 0 0 1-7.32 2 .74.74 0 0 1-.46-.16.57.57 0 0 1-.25-.43l-.75-3.25a.67.67 0 0 1 .06-.5.7.7 0 0 1 .37-.35l3.5-1.5a.72.72 0 0 1 .46 0 1 1 0 0 1 .42.25l1.53 1.88a11.31 11.31 0 0 0 3.27-2.28 11.72 11.72 0 0 0 2.26-3.25l-1.87-1.54a.83.83 0 0 1-.25-.42.59.59 0 0 1 0-.45l1.5-3.5a.67.67 0 0 1 .34-.38.73.73 0 0 1 .5-.06z"/><path d="M35.5 53.5a18 18 0 1 1 18-18 18 18 0 0 1-18 18zm0-35a17 17 0 1 0 17 17 17 17 0 0 0-17-17z" opacity=".2"/><path d="M35.5 71A35.5 35.5 0 1 1 71 35.5 35.55 35.55 0 0 1 35.5 71zm0-70A34.5 34.5 0 1 0 70 35.5 34.54 34.54 0 0 0 35.5 1z" opacity=".06"/></symbol><symbol id="phone-talk" viewBox="0 0 61.6 62.6"><g fill="none" stroke="#ffd200" stroke-width="2" stroke-linecap="round" stroke-linejoin="round" stroke-miterlimit="10"><path d="M26.7 44.8c-.9 0-1.8.2-2.9.8-.1 0-.2.1-.2.2h0c-.9 0-3.4-1.6-5.3-4.5-.5-.7-1-1.5-1.4-2.4-.4-.8-.8-1.7-1.2-2.5-.6-1.6-1-3.3-1.1-4.8 0-1.4.2-2 .3-2.2.1 0 .2-.1.3-.1 3.4-2 3.6-4.5 2.6-9.1-.6-2.9-1.2-5.9-3.1-7.1-.6-.4-1.3-.6-2.3-.6-.8 0-1.7.1-2.3.3-1.9.6-4.1 2-5.5 3.7C1.9 19.8 1 24.3 1 27.4c0 5.1 1.9 11.5 4.9 17.2s7.3 10.9 11.5 13.8c2.9 2 6.5 3.2 9.6 3.2.4 0 .9 0 1.3-.1 2.2-.2 4.6-1.2 6.2-2.5.7-.5 2.4-2.3 2.4-4 0-2.2-2-4.4-4.1-6.5-2.3-2.3-4-3.7-6.1-3.7zM41.7 33.3c-2.5 0-5-.4-7.3-1.3-.3-.1-.5-.1-.8 0l-6.3 2 1.9-3.4c.3-.5.2-1.2-.3-1.6-3.9-3.1-6.1-7.4-6.1-11.9C22.7 8.3 31.2 1 41.7 1c10.4 0 18.9 7.3 18.9 16.2s-8.5 16.1-18.9 16.1z"/><path d="M34.9 17.2c0-.9-.8-1.7-1.7-1.7s-1.7.8-1.7 1.7.8 1.7 1.7 1.7c1 0 1.7-.8 1.7-1.7zM43.3 17.2c0-.9-.8-1.7-1.7-1.7s-1.7.8-1.7 1.7.8 1.7 1.7 1.7c.9 0 1.7-.8 1.7-1.7zM51.3 17.2c0-.9-.8-1.7-1.7-1.7s-1.7.8-1.7 1.7.8 1.7 1.7 1.7c.9 0 1.7-.8 1.7-1.7z"/></g></symbol><symbol id="quality" viewBox="0 0 67.3 67"><path d="M33.6.638l-4.2 2.9-5.1-1.1-2.8 4.3-5.1 1-1 5.1-4.3 2.8 1.1 5.1-2.9 4.2 2.9 4.2-1.1 5.1 4.3 2.8 1 5.1 5.1 1 2.8 4.3 5.1-1.1 4.2 2.9 4.2-2.9 5 1.1 2.8-4.3 5.1-1 1-5.1 4.3-2.8-1.1-5.1 2.9-4.2-2.8-4.3 1.1-5.1-4.3-2.8-1-5.1-5.1-1-2.8-4.3-5 1.1-4.3-2.8zm0 10.6l4.2 8.5 9.4 1.4-6.8 6.6 1.6 9.3-8.4-4.5-8.4 4.4 1.6-9.3-6.8-6.6 9.4-1.4 4.2-8.4zm-19.8 26.3l-12.7 19.9 11.4-2.3 3 10.6 10.4-17.3m15.5 0l10.4 17.3 3-10.6 11.4 2.3-12.7-19.8" fill="none" stroke="#ffd200" stroke-width="2" stroke-linecap="round" stroke-linejoin="round" stroke-miterlimit="10"/></symbol><symbol id="stones" viewBox="0 0 88.878 66.166"><path d="M20.446 53.026s-7.248 5.05-2.498 8.653c4.749 3.603 15.846 2.93 18.527.484 2.682-2.445 2.233-10.395-2.588-10.296-4.821.099-8.004-1.578-13.441 1.159zM43.966 53.581s-6.275 4.909-3.272 8.341c3.003 3.432 15.494 2.153 15.82-.695.326-2.848-.005-10.499-4.692-9.484-4.687 1.017-6.211.301-7.856 1.838zM10.589 62.905s5.906-3.033 4.041-6.497c-1.865-3.464-12.211-4.646-12.948-2.285S-.06 63.05 3.911 63.039c3.971-.01 5.089.874 6.678-.134zM65.66 65.161s-7.343.176-7.286-4.385c.058-4.56 4.987-8.355 7.331-8.022 2.345.333 8.665 1.267 8.981 5.114.316 3.846-.721 5.553-1.595 6.067-.872.514-5.997 1.296-7.431 1.226zM54.869 40.537s-8.052 1.258-4.781 6.039 11.449 8.681 14.343 4.151c2.894-4.529 2.013-10.316-.881-10.191-2.893.127-4.823-1.37-8.681.001zM68.441 47.061s1.761 8.43 8.43 6.668c6.668-1.761 9.687-8.304 6.165-11.198-3.523-2.894-8.052-5.536-11.198-2.39-3.144 3.146-3.886 5.329-3.397 6.92zM42.111 40.768s-10.443-4.278-13.713 1.636c-3.271 5.914 1.007 8.158 4.151 8.169 3.146.009 14.609 3.532 14.665-2.004.055-5.536-5.103-7.801-5.103-7.801zM12.295 39.12s-8.933 3.649-5.033 8.807 7.172 7.297 10.065 5.787c2.894-1.51 7.926-5.061 7.801-7.06s-.881-7.786-4.781-7.534-2.643-1.51-8.052 0zM57.68 29.285s8.56-4.907 14.348 0 .856 9.311-1.27 9.562c-2.127.251-12.326 1.258-13.077-1.132s-4.456-6.717-.001-8.43zM28.234 27.801S19 23.523 16.107 29.437s.89 8.158 3.672 8.169 12.919 3.532 12.968-2.004c.049-5.536-4.513-7.801-4.513-7.801zM41.207 29.901s-8.323 2.866-3.951 6.9 13.793 6.21 16.022 1.174c2.229-5.035.209-10.543-2.843-9.833-3.053.711-5.384-.368-9.228 1.759zM29.025 23.498s2.876-7.635 9.226-5.853 5.538 7.512 4.306 8.593c-1.233 1.081-7.253 6.091-9.016 4.379-1.764-1.713-6.462-3.856-4.516-7.119zM77.133 55.89s-2.154 4.834.987 6.974c3.141 2.139 10.527-.944 9.693-3.191-.834-2.248-3.834-8.086-6.41-6.516-2.578 1.569-3.796 1.274-4.27 2.733zM58.769 15.823s-10.989-2.567-13.28 3.791 2.288 7.896 5.396 7.406 14.985 1.169 14.161-4.305c-.824-5.474-6.277-6.892-6.277-6.892zM27.909 13.849s3.471 3.996 6.737 2.053c3.266-1.942 3.594-9.94 1.204-10.134-2.389-.194-8.948.058-8.615 3.056.333 2.999-.449 3.979.674 5.025zM27.943 18.121s-2.37-4.732-6.016-3.662-5.949 8.736-3.683 9.518 8.683 2.166 9.104-.821c.421-2.989 1.423-3.743.595-5.035zM41.052 5.805s-4.341 6.68-.387 8.952c3.954 2.271 15.353-2.994 14.737-5.793s-3.413-9.93-7.517-7.447-5.777 2.3-6.833 4.288z" fill="none" stroke="#ffd200" stroke-width="2" stroke-miterlimit="10"/></symbol><symbol id="truck" viewBox="0 0 113.5 60.465"><g fill="none" stroke="#ffd200" stroke-width="2" stroke-linecap="round" stroke-linejoin="round" stroke-miterlimit="10"><path d="M1 4.279v46.896h15.741c.656-4.755 4.591-8.526 9.51-8.526s8.854 3.771 9.51 8.526h51.651c.656-4.755 4.591-8.526 9.51-8.526s8.854 3.771 9.51 8.526h6.067V31.499s-.492-4.591-4.263-8.526l-5.083-12.626h-8.035v-.82c0-1.148-.984-2.132-2.132-2.132-1.148 0-2.132.984-2.132 2.132v.82H75.935v34.106h-4.263l-.085-39.354V1H66.26v5.739H10.838v-2.46H1zm84.281 19.677V13.79h15.249l4.099 10.166H85.281z"/><path d="M19.879 52.209c-.134.269-.134.672-.134.941 0 3.494 2.822 6.316 6.316 6.316s6.316-2.822 6.316-6.316c0-.269-.134-.672-.134-.941-.403-3.091-2.957-5.375-6.182-5.375s-5.779 2.418-6.182 5.375z"/></g><path d="M90.753 52.209c-.134.269-.134.672-.134.941 0 3.494 2.822 6.316 6.316 6.316s6.316-2.822 6.316-6.316c0-.269-.134-.672-.134-.941-.403-3.091-2.957-5.375-6.182-5.375-3.225-.001-5.779 2.418-6.182 5.375z" fill="none" stroke="#ffd200" stroke-width="2" stroke-linecap="round" stroke-linejoin="round" stroke-miterlimit="10"/></symbol><symbol id="wallet" viewBox="0 0 77.3 64.6"><g fill="none" stroke="#ffd200" stroke-width="2" stroke-linecap="round" stroke-linejoin="round" stroke-miterlimit="10"><path d="M76.3 32.1v21.3M47.8 8.5V3.9h24.6c.7 0 1.2.6 1.2 1.2v10.1m-45.3-.3V10c0-.7.6-1.2 1.2-1.2h35.1c.7 0 1.2.6 1.2 1.2v5.1m-57 0V2.2c0-.6.6-1.2 1.2-1.2h33.8c.7 0 1.2.6 1.2 1.2v6.4M1 14.3c0-1.8 1.4-3.2 3.2-3.2h4.2M75 63.6H2.2c-.6 0-1.2-.6-1.2-1.3v-48c.9.6 2 .9 3.2.9h68.9c1.8 0 3.2 1.7 3.2 3.8v13.2h-9.6c-5.5 0-10 4.7-10 10.5s4.5 10.5 10 10.5h9.6v9c0 .8-.6 1.4-1.3 1.4z"/><path d="M62.1 42.9c0 2.9 2.3 5.3 5.2 5.3s5.2-2.4 5.2-5.3-2.3-5.3-5.2-5.3c-2.9 0-5.2 2.3-5.2 5.3zM6.6 21.8H10M29.1 21.8h6.4M41.8 21.8h6.4M54.5 21.8h6.4M16.4 21.8h6.4M67.2 21.8h3.4"/></g></symbol></svg>