<svg xmlns="http://www.w3.org/2000/svg" width="259" height="46" viewBox="0 0 2590 460" fill="#ffffff">
  <path fill-rule="nonzero" d="M838 459l-50 0 0 -197 125 0 0 46 -75 0 0 151zm151 0l-50 0 0 -197 66 0c24,0 43,6 57,18 15,12 22,28 22,49 0,20 -7,37 -22,49 -14,12 -33,18 -57,18l-16 0 0 63zm43 -130l0 0c0,-7 -2,-12 -7,-16 -5,-4 -11,-5 -20,-5l-16 0 0 42 16 0c9,0 15,-2 20,-5 5,-4 7,-9 7,-16zm250 130l-54 0 -12 -31 -78 0 -12 31 -51 0 78 -197 51 0 78 197zm-105 -136l0 0 -22 61 45 0 -23 -61zm303 136l-52 0 0 -78 -72 0 0 78 -52 0 0 -197 52 0 0 73 72 0 0 -73 52 0 0 197zm217 0l-59 0 -47 -79c-3,0 -6,1 -10,1 -3,0 -6,0 -9,0l0 78 -52 0 0 -197 52 0 0 74c8,-1 14,-2 18,-5 4,-2 9,-7 13,-15l32 -54 56 0 -33 54c-5,8 -9,15 -14,21 -4,6 -8,11 -12,16l65 106zm210 0l-54 0 -11 -31 -79 0 -11 31 -51 0 77 -197 51 0 78 197zm-104 -136l0 0 -23 61 45 0 -22 -61zm176 136l-50 0 0 -197 66 0c24,0 43,6 57,18 15,12 22,28 22,49 0,20 -7,37 -22,49 -14,12 -33,18 -57,18l-16 0 0 63zm43 -130l0 0c0,-7 -2,-12 -7,-16 -5,-4 -11,-5 -20,-5l-16 0 0 42 16 0c9,0 15,-2 20,-5 5,-4 7,-9 7,-16zm234 67c0,19 -7,35 -21,46 -15,11 -34,17 -58,17l-76 0 0 -197 51 0 0 72 25 0c24,0 43,5 57,16 15,12 22,27 22,46zm-52 0l0 0c0,-5 -2,-9 -7,-12 -5,-3 -11,-5 -20,-5l-25 0 0 34 25 0c9,0 15,-1 20,-4 5,-3 7,-8 7,-13zm208 63l-129 0 0 -197 129 0 0 46 -77 0 0 28 69 0 0 46 -69 0 0 31 77 0 0 46zm84 0l-51 0 0 -197 67 0c24,0 43,6 57,18 14,12 21,28 21,49 0,20 -7,37 -21,49 -14,12 -33,18 -57,18l-16 0 0 63zm42 -130l0 0c0,-7 -2,-12 -7,-16 -4,-4 -11,-5 -19,-5l-16 0 0 42 16 0c8,0 15,-2 19,-5 5,-4 7,-9 7,-16z"/>
  <path fill-rule="nonzero" d="M829 212l-41 0 0 -212 66 0c25,0 45,6 59,18 15,13 22,30 22,51 0,21 -8,38 -22,50 -15,13 -34,19 -59,19l-25 0 0 74zm63 -143l0 0c0,-10 -3,-18 -10,-23 -7,-6 -16,-8 -28,-8l-25 0 0 63 25 0c12,0 22,-3 28,-9 7,-5 10,-13 10,-23zm137 145c-21,0 -39,-7 -53,-22 -15,-14 -22,-32 -22,-54 0,-22 7,-40 22,-55 14,-14 32,-22 53,-22 22,0 40,8 54,22 15,15 22,33 22,55 0,22 -7,40 -22,54 -14,15 -32,22 -54,22zm0 -27l0 0c13,0 24,-5 33,-14 8,-10 12,-21 12,-35 0,-14 -4,-26 -12,-35 -9,-10 -20,-14 -33,-14 -12,0 -23,4 -32,14 -8,9 -13,21 -13,35 0,14 5,25 13,35 9,9 20,14 32,14zm135 -38l-3 0 0 63 -29 0 0 -148 29 0 0 59 3 0c7,0 13,-1 17,-4 4,-2 8,-7 13,-14l25 -41 32 0 -26 40c-3,6 -7,12 -10,16 -3,4 -6,8 -9,12l50 80 -34 0 -40 -65c-3,1 -5,2 -8,2 -3,0 -6,0 -10,0zm234 63l-28 0 0 -105 -65 105 -29 0 0 -148 28 0 0 104 66 -104 28 0 0 148zm66 -122l-44 0 0 -26 117 0 0 26 -43 0 0 122 -30 0 0 -122zm220 122l-29 0 0 -63 -66 0 0 63 -30 0 0 -148 30 0 0 58 66 0 0 -58 29 0 0 148zm32 -104c0,-13 5,-24 15,-32 10,-8 23,-12 39,-12l54 0 0 148 -29 0 0 -57 -17 0 -38 57 -32 0 42 -61c-11,-3 -19,-9 -25,-16 -6,-8 -9,-16 -9,-27zm30 1l0 0c0,6 2,11 6,15 4,3 10,5 17,5l26 0 0 -39 -26 0c-7,0 -13,2 -17,5 -4,4 -6,9 -6,14zm239 103l-29 0 0 -63 -66 0 0 63 -30 0 0 -148 30 0 0 58 66 0 0 -58 29 0 0 148zm103 -123c-13,0 -24,4 -32,14 -9,9 -13,21 -13,35 0,14 4,25 13,35 8,9 19,14 32,14 7,0 13,-2 19,-5 6,-2 12,-7 18,-13l18 20c-8,8 -16,15 -26,19 -9,4 -19,6 -29,6 -22,0 -40,-7 -54,-22 -14,-14 -22,-32 -22,-54 0,-22 8,-40 22,-55 14,-14 32,-22 54,-22 10,0 20,2 29,6 9,4 17,10 24,17l-18 20c-5,-5 -11,-9 -16,-11 -6,-3 -13,-4 -19,-4zm110 60l-2 0 0 63 -30 0 0 -148 30 0 0 59 2 0c8,0 13,-1 17,-4 4,-2 8,-7 13,-14l25 -41 32 0 -25 40c-4,6 -7,12 -10,16 -4,4 -6,8 -9,12l49 80 -34 0 -40 -65c-2,1 -5,2 -8,2 -3,0 -6,0 -10,0zm234 63l-28 0 0 -105 -65 105 -29 0 0 -148 28 0 0 104 66 -104 28 0 0 148zm158 0l-28 0 0 -105 -65 105 -29 0 0 -148 28 0 0 104 66 -104 28 0 0 148zm-59 -158l0 0c-10,0 -19,-3 -26,-9 -6,-6 -10,-13 -10,-22l0 -5 22 0 0 4c0,4 1,8 4,10 2,3 6,4 10,4 5,0 8,-1 11,-3 2,-3 3,-6 3,-11l0 -4 22 0 0 6c0,9 -3,16 -10,21 -7,6 -15,9 -26,9z"/>
  <polygon fill-rule="nonzero" points="328,0 0,328 66,394 328,131 525,328 460,394 328,394 394,328 328,263 131,460 197,460 525,460 657,328 "/>
</svg>