<svg xmlns="http://www.w3.org/2000/svg" width="260" height="48" viewBox="0 0 2600 480" fill="#ffffff">
  <path fill-rule="nonzero" d="M871 478l-52 0 0 -205 129 0 0 48 -77 0 0 157zm157 0l-53 0 0 -205 69 0c25,0 45,7 59,19 15,13 22,29 22,51 0,21 -7,38 -22,50 -14,13 -34,19 -59,19l-16 0 0 66zm44 -135l0 0c0,-7 -3,-13 -8,-16 -5,-4 -11,-6 -20,-6l-16 0 0 44 16 0c9,0 15,-2 20,-6 5,-4 8,-9 8,-16zm259 135l-56 0 -12 -32 -82 0 -11 32 -53 0 80 -205 53 0 81 205zm-109 -141l0 0 -23 63 47 0 -24 -63zm314 141l-54 0 0 -81 -75 0 0 81 -54 0 0 -205 54 0 0 76 75 0 0 -76 54 0 0 205zm225 0l-62 0 -49 -83c-3,1 -6,1 -9,2 -3,0 -6,0 -10,0l0 81 -53 0 0 -205 53 0 0 77c8,-1 14,-2 19,-5 4,-3 9,-8 13,-15l34 -57 58 0 -34 56c-6,9 -10,16 -15,22 -4,7 -8,12 -12,17l67 110zm217 0l-55 0 -12 -32 -82 0 -12 32 -53 0 81 -205 53 0 80 205zm-108 -141l0 0 -24 63 47 0 -23 -63zm183 141l-52 0 0 -205 69 0c25,0 44,7 59,19 15,13 22,29 22,51 0,21 -7,38 -22,50 -15,13 -34,19 -59,19l-17 0 0 66zm44 -135l0 0c0,-7 -2,-13 -7,-16 -5,-4 -12,-6 -20,-6l-17 0 0 44 17 0c8,0 15,-2 20,-6 5,-4 7,-9 7,-16zm131 -70l-26 81 -37 0 9 -81 54 0zm164 137l33 36c-11,12 -23,20 -36,26 -13,6 -27,9 -42,9 -30,0 -56,-10 -76,-30 -21,-20 -31,-45 -31,-75 0,-30 10,-56 31,-76 20,-20 46,-30 76,-30 14,0 28,3 40,8 13,6 25,14 35,24l-32 36c-7,-6 -14,-11 -20,-14 -7,-3 -15,-5 -23,-5 -11,0 -20,3 -29,9 -8,6 -14,14 -18,24l77 0 0 44 -78 0c3,11 10,20 19,26 8,6 18,10 29,10 8,0 16,-2 23,-5 7,-4 14,-9 22,-17zm110 68l-52 0 0 -205 69 0c25,0 45,7 59,19 15,13 22,29 22,51 0,21 -7,38 -22,50 -14,13 -34,19 -59,19l-17 0 0 66zm45 -135l0 0c0,-7 -3,-13 -8,-16 -5,-4 -11,-6 -20,-6l-17 0 0 44 17 0c9,0 15,-2 20,-6 5,-4 8,-9 8,-16z"/>
  <path fill-rule="nonzero" d="M857 195l-38 0 0 -195 61 0c23,0 41,6 54,17 13,11 20,27 20,47 0,19 -7,35 -20,46 -14,11 -32,17 -54,17l-23 0 0 68zm58 -131l0 0c0,-9 -3,-16 -9,-22 -7,-5 -15,-7 -26,-7l-23 0 0 58 23 0c11,0 20,-3 26,-8 6,-5 9,-12 9,-21zm126 133c-20,0 -36,-7 -49,-20 -14,-13 -20,-30 -20,-50 0,-20 6,-37 20,-50 13,-14 29,-20 49,-20 20,0 36,6 50,20 13,13 20,30 20,50 0,20 -7,37 -20,50 -14,13 -30,20 -50,20zm0 -25l0 0c12,0 22,-4 30,-13 8,-8 12,-19 12,-32 0,-13 -4,-24 -12,-32 -8,-9 -18,-13 -30,-13 -12,0 -21,4 -29,13 -8,8 -12,19 -12,32 0,13 4,24 12,32 8,9 17,13 29,13zm124 -34l-2 0 0 57 -28 0 0 -136 28 0 0 54 2 0c7,0 12,-1 16,-3 3,-2 7,-7 11,-13l23 -38 30 0 -23 37c-4,6 -7,11 -10,15 -3,4 -5,7 -8,10l45 74 -31 0 -36 -59c-3,0 -5,1 -8,1 -3,0 -6,1 -9,1zm215 57l-25 0 0 -96 -61 96 -26 0 0 -136 26 0 0 96 60 -96 26 0 0 136zm61 -112l-40 0 0 -24 107 0 0 24 -40 0 0 112 -27 0 0 -112zm203 112l-27 0 0 -58 -61 0 0 58 -27 0 0 -136 27 0 0 54 61 0 0 -54 27 0 0 136zm29 -95c0,-13 5,-23 14,-30 9,-8 21,-11 36,-11l50 0 0 136 -27 0 0 -52 -16 0 -35 52 -29 0 38 -56c-10,-3 -17,-8 -23,-15 -5,-6 -8,-15 -8,-24zm28 1l0 0c0,5 1,10 5,13 4,3 9,5 16,5l24 0 0 -36 -24 0c-7,0 -12,2 -16,5 -4,3 -5,7 -5,13zm220 94l-27 0 0 -58 -61 0 0 58 -27 0 0 -136 27 0 0 54 61 0 0 -54 27 0 0 136zm94 -113c-12,0 -21,4 -29,13 -8,8 -12,19 -12,32 0,13 4,24 12,32 8,9 17,13 29,13 7,0 13,-1 18,-4 6,-2 11,-7 16,-12l17 18c-7,8 -15,14 -23,17 -9,4 -18,6 -28,6 -20,0 -36,-7 -49,-20 -14,-13 -20,-30 -20,-50 0,-20 6,-37 20,-50 13,-14 29,-20 49,-20 10,0 18,1 27,5 8,4 16,9 22,16l-16 18c-5,-5 -10,-8 -16,-11 -5,-2 -11,-3 -17,-3zm173 71c0,13 -5,24 -14,31 -9,7 -22,11 -38,11l-49 0 0 -136 27 0 0 53 22 0c16,0 29,4 38,11 9,8 14,18 14,30zm-27 0l0 0c0,-5 -2,-9 -7,-12 -4,-3 -10,-5 -17,-5l-23 0 0 35 23 0c7,0 13,-2 17,-5 5,-3 7,-7 7,-13zm79 -15l-3 0 0 57 -27 0 0 -136 27 0 0 54 2 0c7,0 13,-1 16,-3 4,-2 8,-7 12,-13l23 -38 29 0 -23 37c-3,6 -6,11 -9,15 -3,4 -6,7 -8,10l45 74 -31 0 -37 -59c-2,0 -5,1 -7,1 -3,0 -6,1 -9,1zm215 57l-26 0 0 -96 -60 96 -26 0 0 -136 26 0 0 96 60 -96 26 0 0 136zm145 0l-25 0 0 -96 -61 96 -26 0 0 -136 26 0 0 96 60 -96 26 0 0 136zm-54 -145l0 0c-10,0 -18,-3 -24,-8 -6,-6 -9,-12 -9,-20l0 -5 20 0 0 3c0,5 1,8 3,10 3,2 6,3 10,3 4,0 7,-1 10,-3 2,-2 3,-5 3,-9l0 -4 20 0 0 5c0,8 -3,15 -9,20 -6,5 -14,8 -24,8z"/>
  <polygon fill-rule="nonzero" points="341,0 0,341 68,409 341,136 546,341 478,409 341,409 409,341 341,273 136,478 204,478 546,478 682,341 "/>
</svg>