<svg xmlns="http://www.w3.org/2000/svg" width="261" height="62" viewBox="0 0 2610 619" fill="#002f62">
  <path fill-rule="nonzero" d="M1234 528c0,26 -8,48 -24,65 -17,17 -37,26 -62,26 -26,0 -48,-9 -66,-26 -17,-17 -26,-39 -26,-65 0,-26 9,-47 26,-64 18,-18 40,-26 66,-26 12,0 24,2 35,7 11,4 21,11 30,20l-28 31c-6,-5 -12,-10 -18,-12 -6,-3 -12,-4 -19,-4 -13,0 -23,4 -32,14 -8,9 -12,20 -12,34 0,14 4,26 12,35 9,9 20,14 32,14 9,0 16,-2 22,-6 6,-4 11,-10 14,-17l-41 0 0 -38 90 0c0,1 1,3 1,6 0,2 0,4 0,6zm69 88l-45 0 0 -176 62 0c21,0 37,5 50,15 12,11 19,24 19,40 0,11 -3,20 -7,28 -5,9 -12,15 -21,19l38 74 -48 0 -31 -61 -17 0 0 61zm39 -118l0 0c0,-5 -1,-9 -5,-12 -4,-3 -9,-5 -15,-5l-19 0 0 33 19 0c6,0 11,-2 15,-5 4,-3 5,-7 5,-11zm246 118l-48 0 -10 -27 -70 0 -10 27 -46 0 69 -176 46 0 69 176zm-93 -121l0 0 -20 54 40 0 -20 -54zm266 121l-44 0 -65 -102 0 102 -44 0 0 -176 44 0 65 103 0 -103 44 0 0 176zm194 0l-53 0 -42 -71c-3,1 -6,1 -8,1 -3,1 -6,1 -9,1l0 69 -46 0 0 -176 46 0 0 66c7,0 12,-1 16,-4 4,-2 8,-7 12,-13l28 -49 50 0 -29 48c-4,8 -9,14 -12,19 -4,6 -8,11 -11,15l58 94zm187 0l-48 0 -10 -27 -70 0 -11 27 -45 0 69 -176 46 0 69 176zm-93 -121l0 0 -21 54 41 0 -20 -54zm157 121l-44 0 0 -176 62 0c20,0 37,5 49,15 13,11 19,24 19,40 0,11 -2,20 -7,28 -5,9 -12,15 -21,19l38 74 -48 0 -31 -61 -17 0 0 61zm40 -118l0 0c0,-5 -2,-9 -6,-12 -4,-3 -9,-5 -15,-5l-19 0 0 33 19 0c6,0 11,-2 15,-5 4,-3 6,-7 6,-11zm193 118l-115 0 0 -176 115 0 0 41 -69 0 0 26 61 0 0 41 -61 0 0 27 69 0 0 41zm75 0l-45 0 0 -176 62 0c20,0 37,5 49,15 13,11 19,24 19,40 0,11 -2,20 -7,28 -5,9 -12,15 -21,19l38 74 -48 0 -31 -61 -16 0 0 61zm39 -118l0 0c0,-5 -2,-9 -6,-12 -4,-3 -9,-5 -15,-5l-18 0 0 33 18 0c6,0 11,-2 15,-5 4,-3 6,-7 6,-11z"/>
  <path fill-rule="nonzero" d="M1124 351l-68 0 0 -350 115 0c39,0 69,9 93,29 23,19 35,44 35,76 0,22 -6,41 -16,57 -11,16 -26,28 -46,37l82 151 -74 0 -71 -134 -50 0 0 134zm104 -242l0 0c0,-14 -5,-25 -14,-33 -10,-9 -23,-13 -40,-13l-50 0 0 92 50 0c17,0 30,-4 40,-12 9,-9 14,-20 14,-34zm242 245c-35,0 -65,-12 -89,-35 -23,-24 -35,-54 -35,-90 0,-36 12,-67 35,-91 24,-24 54,-36 89,-36 36,0 66,12 90,36 23,24 35,55 35,91 0,36 -12,66 -35,90 -24,23 -54,35 -90,35zm0 -45l0 0c22,0 39,-7 54,-23 14,-15 21,-34 21,-57 0,-24 -7,-43 -21,-58 -15,-16 -32,-24 -54,-24 -21,0 -38,8 -53,24 -14,15 -21,34 -21,58 0,23 7,42 21,57 15,16 32,23 53,23zm223 -62l-4 0 0 104 -49 0 0 -245 49 0 0 98 4 0c12,0 22,-2 28,-6 7,-4 14,-12 21,-24l41 -68 53 0 -41 67c-6,10 -12,19 -17,26 -5,7 -10,14 -15,19l81 133 -56 0 -65 -107c-5,1 -9,2 -14,3 -5,0 -10,0 -16,0zm234 104l-49 0 0 -245 49 0 0 245zm109 -202l-72 0 0 -43 193 0 0 43 -72 0 0 202 -49 0 0 -202zm360 202l-47 0 -109 -165 0 165 -46 0 0 -245 47 0 109 165 0 -165 46 0 0 245zm214 0l-154 0 0 -245 154 0 0 43 -105 0 0 55 96 0 0 43 -96 0 0 60 105 0 0 44z"/>
  <polygon fill="#0060b1" fill-rule="nonzero" points="440,0 0,440 88,528 440,176 704,440 616,528 440,528 528,440 440,352 176,616 264,616 704,616 880,440 "/>
</svg>